<?xml version="1.0" encoding="utf-8"?>
<!-- Generator: Adobe Illustrator 25.2.1, SVG Export Plug-In . SVG Version: 6.00 Build 0)  -->
<svg version="1.1" id="Capa_1" xmlns="http://www.w3.org/2000/svg" xmlns:xlink="http://www.w3.org/1999/xlink" x="0px" y="0px"
	 viewBox="0 0 1500 501.1" style="enable-background:new 0 0 1500 501.1;" xml:space="preserve">
<style type="text/css">
	.st0{fill:#81021F;}
	.st1{fill:#FFFFFF;}
	.st2{fill:#DADADA;}
	.st3{fill:#A0A0A4;}
</style>
<path class="st0" d="M1333.9,1642.6c-0.1-1.2-0.2-2.1-0.1-2.9c1-8.3,2.1-16.5,3.1-24.8c1-8.1,1.8-16.3,2.8-24.4
	c0.6-4.6,1.2-9.2,1.8-13.9c0.5-3.8,1-7.6,1.5-11.3c0.3-2,0.9-2.5,2.7-2.6c7.1-0.4,14.1-0.7,21.2-1c0.7,0,1.4,0.2,2.3,0.4
	c-0.2,4.9-1.3,9.6-1.7,14.3c-0.5,4.9-1.1,9.8-1.7,14.7c-0.6,4.8-1.3,9.5-1.9,14.3c-0.6,4.8-1.2,9.5-1.8,14.4
	c2.2,0.7,4.3,0.2,6.3,0.1c6.3-0.4,12.7-0.9,19-1.4c1.1-0.1,2.2,0,3.6,0c-0.1,6-1.5,11.6-1.6,17.3c1.1-0.1,1.1-1,1.3-1.6
	c6.8-16.4,13.6-32.9,20.5-49.3c3.2-7.7,6.5-15.3,9.9-23c2.2-4.9,1.8-4.3,6.9-4.6c7.8-0.4,15.5-0.9,23.3-1.4c3.7-0.3,4.4,0,4.8,3.9
	c0.4,4.3,1.3,8.7,2,13c1.8,10.9,3.6,21.7,5.5,32.6c1.6,9.5,3.3,18.9,4.9,28.4c0.1,0.5,0,1.1,0,1.7c-0.7,0.2-1.2,0.5-1.7,0.6
	c-5.1,0.6-19.7,1.2-23,0.9c-1-1.8-0.8-4-1.3-6c-0.5-2,0-4.2-1.1-6.3c-2.7-0.5-5.3,0.2-7.9,0.3c-2.7,0.1-5.4,0.2-8.1,0.3
	c-2.7,0.2-5.4,0-8,0.7c-2.3,4-3.1,8.5-5,12.7c-25.3,1.3-50.4,2.7-75.5,4C1336,1642.9,1335.2,1642.7,1333.9,1642.6z M1435.2,1578.6
	c-0.9,0.1-1.1,0.8-1.3,1.5c-0.7,2.3-1.4,4.6-2.2,6.8c-2,5.7-4.1,11.4-6.1,17.1c-0.3,1-0.5,2.1-0.7,3.1c5.3,0.7,10.9,0.3,13.9-1
	C1438.8,1603.1,1437,1589.1,1435.2,1578.6z"/>
<path class="st0" d="M1520.3,1632.7c-3.2,0.3-6,0.6-8.8,0.8c-3.4,0.3-6.8,0.5-10.1,0.7c-2.3,0.1-2.8-0.5-2.5-2.6
	c1-8.3,2-16.5,3.1-24.8c0.6-5.2,1.3-10.4,2-15.5c0.7-5.6,1.4-11.2,2.2-16.8c0.8-6.6,1.7-13.2,2.5-19.7c0.1-0.7,0.3-1.3,0.5-2.2
	c0.9-0.2,1.6-0.6,2.4-0.6c10.1-0.7,20.3-1.4,30.7-1.5c0.4,0.9,0.9,1.8,1,2.7c0.7,6,1.3,12.1,1.9,18.1c0.7,7,1.3,14.1,2,21.1
	c0.1,1.3,0.1,2.7,1,4.5c0.6-1.2,1-1.9,1.3-2.7c4.3-13.1,8.6-26.3,13-39.4c0.2-0.5,0.4-1.1,0.6-1.6c1.5-4.1,1.5-4,5.7-4.2
	c7.1-0.4,14.1-0.8,21.2-1.3c1.6-0.1,3.1-0.3,4.7-0.3c2.5-0.1,2.9,0.4,2.7,3c-0.4,6.1-1.5,12-2.8,18c-0.8,3.7-1.4,7.5-1.8,11.3
	c-0.8,7.7-1.3,15.5-0.9,23.3c0.1,3.1-0.4,6.2-0.7,9.3c-0.6,5.3-1.3,10.6-2,16.1c-0.9,0.3-1.7,0.7-2.5,0.7
	c-5.2,0.4-10.4,0.7-15.7,1.1c-0.6,0-1.1,0-1.7-0.1c-1.1-0.1-1.8-0.9-1.7-2c0.3-2.9,0.7-5.9,1-8.8c0.7-6.7,1.4-13.5,2.2-20.2
	c0.4-3.8,0.9-7.6,1.2-11.4c0.3-3.1,0.4-6.2,0.6-9.6c-1.5,1.7-1.5,1.7-2.5,4.9c-0.6,1.9-1.2,3.8-1.9,5.6c-0.6,1.7-1.3,3.5-1.9,5.2
	c-0.7,1.9-1.3,3.7-2,5.6c-0.6,1.7-1.2,3.5-1.9,5.2c-0.6,1.7-1.3,3.4-1.9,5.2c-0.7,1.9-1.3,3.7-2,5.6c-0.6,1.7-1.2,3.5-1.8,5.2
	c-0.7,1.9-1.4,3.7-2.1,5.6c-0.7,1.7-1.3,3.4-2.1,5.3c-6.3,0.1-12.5,1.1-18.9,0.8c-1.3-8.4-2.1-16.6-3.1-24.8c-1-8-1.8-16.1-3.3-24.1
	c-1.3,5.4-1.8,10.8-2.6,16.1c-0.7,5.6-1.5,11.2-2.2,16.8C1521.7,1621.4,1521,1626.9,1520.3,1632.7z"/>
<path class="st0" d="M1895.2,1534.3c4.9-1.2,21.4-2,26-1.4c0.1,0.1,0.2,0.2,0.2,0.3c0.1,0.1,0.1,0.3,0.1,0.4
	c-3.8,26.7-7.7,53.4-11.5,80.2c-1.2,0.2-2.1,0.5-3.1,0.5c-7.9,0.4-15.8,0.8-23.7,1.2c-0.7,0-1.4,0.1-2.1,0c-0.9,0-1.6-0.5-2-1.3
	c-0.5-0.9-0.8-1.8-1.2-2.7c-4.8-13-9.6-26-14.4-39c-0.3-0.8-0.7-1.5-1.2-2.6c-0.9,1.3-0.6,2.4-0.7,3.4c-0.2,1.1-0.4,2.2-0.5,3.4
	c-0.1,1.1-0.2,2.3-0.3,3.4c-0.1,1.1-0.4,2.2-0.5,3.4c-0.1,1.1-0.1,2.3-0.3,3.4c-0.1,1.1-0.3,2.2-0.5,3.4c-0.1,1.1-0.2,2.2-0.4,3.4
	c-0.1,1.1-0.3,2.2-0.4,3.4c-0.1,1.1-0.2,2.2-0.4,3.4c-0.1,1.1-0.2,2.2-0.4,3.4c-0.1,1.1-0.3,2.2-0.4,3.4c-0.1,1.1-0.2,2.3-0.3,3.4
	c-0.1,1.1-0.3,2.2-0.5,3.4c-0.2,1.1-0.3,2.2-0.5,3.5c-4,0.8-8,0.4-11.9,0.7c-3.8,0.3-7.6,0.7-11.4,0.4c-0.8-1.3-0.1-2.6-0.1-3.8
	c0-1.1,0.2-2.3,0.3-3.4c1-8.1,2.1-16.3,3.2-24.4c1-7.7,2.1-15.4,3.1-23.1c0.7-5.6,1.3-11.2,2-16.8c0.3-2.9,0.6-5.9,1.1-8.8
	c0.2-1.7,0.8-2.2,2.5-2.4c0.4-0.1,0.8-0.1,1.3-0.1c8.6-0.4,17.2-0.8,25.8-1.2c0.8,0,1.7,0.1,2.6,0.2c2.1,4.9,3.5,9.9,5.2,14.8
	c1.8,5.1,3.4,10.2,5.1,15.3c1.7,4.9,3,9.9,4.9,14.7c1.3-5,1.4-10,1.8-14.9c0.5-4.9,1-9.8,1.6-14.8
	C1893.8,1544.6,1894.5,1539.6,1895.2,1534.3z"/>
<path class="st0" d="M1746.7,1584.8c1.5,0.7,2.7,1.1,3.8,1.6c3.9,1.8,5.9,4.8,6,9c0.1,2.8,0.1,5.7-0.2,8.5c-0.5,5.9-1.3,11.8-2,17.9
	c-0.5,0.2-1.1,0.6-1.8,0.6c-7.5,0.4-15,0.8-22.4,1.1c-0.4,0-0.8-0.2-1.5-0.4c0-0.8-0.2-1.6-0.1-2.4c0.7-5.2,1.5-10.3,2.2-15.5
	c0.3-2,0.4-3.9-0.3-5.9c-0.6-1.6-1.6-2.6-3.3-3c-0.3-0.1-0.6-0.1-0.8-0.1c-2.9-0.4-13.2-0.1-17.1,0.6c-1.4,8.8-1.9,17.8-3.2,26.8
	c-2.7,1.1-5.6,0.7-8.3,1c-2.7,0.3-5.4,0.4-8,0.6c-2.8,0.2-5.6,0.4-8.6,0.6c-0.2-1-0.4-1.8-0.4-2.6c0.1-4.6,1.2-8.9,2.2-13.4
	c1.4-6.3,2.9-12.7,4.1-19.1c0.5-2.8,0.4-5.6,0.5-8.4c0-1.1,0-2.3-0.2-3.4c-0.7-6.2-0.1-12.4,0.6-18.6c0.5-4.8,1.1-9.5,1.7-14.3
	c0-0.4,0.2-0.8,0.3-1.1c0.9-1.1,2.1-1,3.2-1.1c4.1-0.3,8.2-0.6,12.3-0.8c10.2-0.5,20.3-1.1,30.5-1.5c3.4-0.1,6.8,0.1,10.1,0.5
	c2.4,0.3,4.7,0.9,7,1.7c6.2,2.2,9.6,6.9,10.2,13.3c0.3,3.1,0.1,6.2-0.5,9.3c-1.5,8.3-6.2,14-14.1,17.1
	C1748,1583.9,1747.6,1584.3,1746.7,1584.8z M1713.7,1561.6c-0.8,5.5-1.5,10.6-2.2,15.9c1.1,0.1,2.1,0.4,3,0.3
	c2.8-0.1,5.6-0.2,8.5-0.4c1.7-0.1,3.4-0.3,5-0.7c2.6-0.6,4.9-1.7,5.9-4.3c0.8-2.1,1.3-4.3,1.2-6.6c-0.1-2.2-1.2-3.8-3.3-4.4
	c-1.3-0.4-2.8-0.6-4.1-0.6c-3.5,0-7,0.1-10.6,0.2C1716.1,1561.1,1715.2,1561.4,1713.7,1561.6z"/>
<path class="st0" d="M1828.2,1598.2c-0.8,6.9-1.7,13.6-2.5,20.1c-1.3,1.1-2.6,0.8-3.9,0.9c-9.6,0.4-19.2,0.8-28.8,1.2
	c-7.9,0.4-15.8,0.9-23.7,1.3c-2.5,0.1-5,0.5-7.8-0.1c0-1.3-0.1-2.4,0-3.5c1-7,2-14,3-20.9c0.7-4.8,1.2-9.5,1.9-14.3
	c0.6-4.9,1.3-9.8,2-14.7c0.8-5.7,1.6-11.5,2.3-17.2c0.4-2.8,0.6-5.6,1-8.4c0.3-2.1,1-2.8,3.3-3.1c0.8-0.1,1.7-0.2,2.5-0.2
	c8.7-0.5,17.5-1,26.2-1.5c6.9-0.4,13.8-0.8,20.7-1.2c3-0.2,5.9-0.3,8.9-0.4c0.8,0,1.6,0.1,2.4,0.2c0.6,1.7,0.4,3.3,0.1,4.8
	c-0.9,5.6-1.1,11.2-2.4,16.9c-6.4,0.2-12.6,0.1-18.8,0.7c-6,0.5-12.1,0-18.2,1.2c-1.1,3.2-1.3,6.4-1.8,9.7c3,0.9,5.9-0.4,8.8-0.4
	c3.1,0.1,6.2-0.3,9.3-0.5c3-0.1,5.9-0.3,8.9-0.4c2.9,0,5.8-0.7,8.7-0.4c0.5,3.4-0.3,11.5-1.7,18.7c-0.8,1.1-2,0.9-3.1,1
	c-7.6,0.4-15.2,0.7-22.9,1.1c-3.5,0.2-7,0.5-10.7,0.8c-0.7,3.3-1.3,6.4-1.1,9.8c2.3,0.6,4.4,0.2,6.5,0.1c7.5-0.5,14.9-1,22.4-1.5
	c1.8-0.1,3.7-0.3,5.5-0.3C1826.4,1597.8,1827.2,1598,1828.2,1598.2z"/>
<path class="st0" d="M1980.3,1529.6c0.4,1.4,0.8,2.6,1,3.8c2.5,14,4.9,28.1,7.3,42.1c1.8,10.2,3.5,20.3,5.2,30.5
	c0.2,1.4,0.2,2.8,0.3,4.3c-2.9,1.1-5.7,0.6-8.5,1c-2.8,0.3-5.6,0.4-8.5,0.5c-2.8,0.2-5.6,0.3-8.3,0.4c-1.6-2.1-1-4.3-1.4-6.3
	c-0.4-2-0.7-4.1-1-6.4c-2.9-0.7-5.5,0.2-8.1,0.2c-2.7,0-5.4,0.1-8.1,0.3c-2.7,0.1-5.3,0.4-8,0.6c-2.5,3.7-3.2,8-4.9,11.7
	c-3.2,0.9-20.7,2-25,1.6c-0.8-1.3,0.1-2.4,0.5-3.5c2.3-5.5,4.7-10.9,7.1-16.3c6-14.2,12-28.3,18.1-42.5c2.5-5.8,5.1-11.6,7.6-17.5
	c0.9-2.1,2.2-2.9,4.5-3c8.9-0.4,17.8-1,26.7-1.5C1977.7,1529.5,1978.7,1529.6,1980.3,1529.6z M1959.1,1552.4c-1,3.2-2,6.4-3,9.5
	c-1.1,3.3-2.4,6.6-3.3,10c-0.9,3.2-2.4,6.2-2.9,9.9c2.5-0.2,4.7-0.3,7-0.5c2.2-0.2,4.5,0.3,6.8-0.9
	C1962.8,1571.1,1961,1561.8,1959.1,1552.4z"/>
<path d="M1376.3,1497c1-0.2,1.5-0.4,2-0.5c5.5-0.4,11-0.7,16.5-1c0.4,0,0.8,0.2,1.4,0.3c1.5,6.7,0.9,13.7,2.4,20.9
	c0.5-0.6,1-1,1.1-1.4c1.8-5.8,3.5-11.6,5.2-17.5c0.2-0.7,0.4-1.3,0.7-2c0.3-0.9,0.9-1.4,1.9-1.5c0.4-0.1,0.8-0.1,1.3-0.2
	c5.4-0.4,10.7-0.8,16.1-1.1c0.4,0,0.8,0.1,1.1,0.2c0.2,0.2,0.3,0.2,0.4,0.4c0.1,0.1,0.2,0.3,0.1,0.4c-0.3,3.9-4.9,42.6-5.8,45.5
	c-3.9,0.9-7.9,1.1-12.2,0.9c-0.5-3.4,0.1-6.6,0.5-9.7c0.4-3.1,0.7-6.2,1-9.3c0.3-3.2,0.6-6.4,0.4-9.8c-0.4,0.7-0.8,1.3-1,2
	c-2.3,7.7-4.5,15.5-6.8,23.2c-0.2,0.7-0.4,1.3-0.6,2c-0.4,1.6-1.3,2.4-3,2.4c-2.6,0-5.3,0.6-7.9,0.2c-1.7-4.9-1.1-9.7-1.8-14.5
	c-0.7-4.7-1-9.5-1.7-14.2c-1.3,4.8-1.4,9.7-2.1,14.6c-0.7,4.7-1.1,9.5-1.7,14.4c-4.2,1.5-8.4,0.9-12.5,1.4
	c-0.6-4.1,0.1-11.2,1.8-23.1C1374.2,1512.4,1374.6,1504.7,1376.3,1497z"/>
<path d="M1537,1485.1c7.6-0.5,14.9-1.1,22.3-1.5c2.4-0.1,4.8,0,7.1,0.7c3.7,1.2,5.7,3.6,5.8,7.4c0.1,1.8,0.1,3.7-0.2,5.5
	c-0.5,3.8-2.2,7-5.8,8.8c-0.9,0.4-1.7,0.9-2.9,1.6c0.8,0.6,1.4,1.1,2,1.5c1.7,1.2,2.7,2.9,2.6,5c0,2.4-0.1,4.8-0.3,7.2
	c-0.3,2.8-1,5.5,0.2,8.3c-3.8,0.9-11.9,1.4-15.2,1c-0.4-1.4,0-3,0-4.5c0-1.4,0.2-2.8,0.3-4.2c0.1-1.4,0.4-2.8,0.4-4.2
	c0-3.2-1.2-4.1-4.6-3.8c-0.3,0-0.5,0.2-1.1,0.5c-1.6,5.5-1.1,11.5-2.8,17.3c-4.7,0.3-9.3,0.6-14,0.9c-0.7-1.6-0.4-3-0.2-4.4
	c1.6-11.3,3.2-22.6,4.7-33.9C1535.9,1491.4,1536,1488.4,1537,1485.1z M1550.4,1493.8c-1.1,1.7-1,3.2-1.1,4.5
	c-0.2,1.5-0.5,3.1-0.6,4.6c-0.1,0.9,0.6,1.7,1.6,1.6c1-0.1,1.9-0.3,2.9-0.5c2.2-0.5,3.3-2,3.8-4.1c0.2-1,0.3-2,0.2-2.9
	c-0.1-1.8-1.1-2.9-2.9-3.1C1553,1493.7,1551.7,1493.8,1550.4,1493.8z"/>
<path d="M1529.3,1501.5c-0.7,5.4-1.4,10.5-2.2,15.7c-0.2,1.4-0.6,2.8-1,4.1c-2.2,7.5-7.2,11.9-14.9,13.2c-3.1,0.5-6.2,0.8-9.3,0.7
	c-1.4-0.1-2.8-0.3-4.2-0.6c-5.4-1.4-8.4-5-8.7-10.6c-0.2-3.4,0-6.8,0.7-10.1c0.9-4.4,1.5-8.9,2.6-13.3c1.7-6.7,6-11.1,12.7-12.9
	c4.8-1.3,9.7-2,14.7-0.9c1.4,0.3,2.7,0.7,4,1.3c3,1.4,4.8,3.9,5.3,7.2C1529.2,1497.4,1529.2,1499.5,1529.3,1501.5z M1504.1,1520
	c0,0.9,0,1.6,0,2.3c0,1.3,0.2,2.6,1.5,3.2c1.5,0.7,2.7,0,3.9-0.9c0.5-0.4,1-1,1.3-1.6c0.4-1,0.8-2.1,1-3.2
	c0.9-5.8,1.7-11.7,2.5-17.5c0.2-1.2,0.2-2.5,0.1-3.8c-0.2-2.6-2.3-3.7-4.5-2.3c-0.9,0.5-1.8,1.5-2.2,2.4c-0.8,1.9-1.2,4-1.7,6.1
	c-0.4,1.9-0.6,3.9-0.8,5.8C1504.9,1513.7,1504.5,1516.9,1504.1,1520z"/>
<path d="M1605.1,1481.2c0.2,0.4,0.5,0.8,0.6,1.2c0.2,0.8,0.3,1.7,0.4,2.5c1.7,13.8,3.6,27.7,5,41.5c-0.5,0.3-0.9,0.7-1.2,0.7
	c-1.4,0.2-2.8,0.5-4.2,0.4c-2.9-0.1-5.8,1.2-8.8,0.5c-1.1-2.7,0-5.7-1.2-8.6c-3-0.3-5.8,0.4-8.7,0.4c-1.8,2.9-1.8,6.1-3.2,8.9
	c-2.7,0.7-9.3,1.1-13.7,0.8c0.1-0.6,0.1-1.3,0.2-1.9c3.3-10.2,6.6-20.4,10-30.6c1.3-4,2.7-8,4-12c0.6-1.9,1.8-3,4-3.1
	c4-0.2,7.9-0.6,11.8-0.9C1601.7,1480.9,1603.4,1480.7,1605.1,1481.2z M1595.2,1509.5c-0.3-5.2-0.4-10-1.1-14.9
	c-0.9,0.1-1.1,0.7-1.2,1.2c-1.2,4.6-3,9-3.8,13.9C1591.2,1510,1593,1510,1595.2,1509.5z"/>
<path d="M1461.8,1521.1c0,1.9,0,3.3,0,4.7c0.1,1.4,0.9,2.4,2.3,2.6c1.6,0.3,3.1,0.1,4.4-1c2.5-2,2.3-5.5-0.4-7.1
	c-1-0.6-2-0.9-3.1-1.4c-2.2-0.9-4.5-1.7-6.7-2.7c-8.3-3.7-10.2-13.1-4.3-20.1c3.5-4.1,8.2-6,13.4-6.6c3.1-0.3,6.2-0.2,9.3-0.2
	c1,0,2,0.2,2.9,0.4c3.8,0.9,6.1,3.3,6.8,7.2c0.4,2.3,0.4,4.5-0.4,6.7c-2.9,1.2-8.9,1.6-13,0.7c-0.1-1.2-0.2-2.4-0.5-3.6
	c-0.3-1.4-1.4-2.1-2.8-2c-1.7,0.1-3,0.9-3.9,2.2c-1.2,1.6-0.8,3.7,0.9,4.8c1.2,0.7,2.6,1.1,3.9,1.7c3,1.3,6.1,2.4,8.9,4
	c5.1,2.9,6.4,6.2,5.4,12c-1.2,7.1-5.2,11.4-12,13.3c-5.5,1.6-11.2,1.6-16.8,0.8c-6.2-0.9-8.8-4.2-8.8-10.4c0-0.8,0-1.7,0.1-2.5
	c0.3-2.2,0.6-2.6,2.8-3C1454,1521,1457.8,1520.6,1461.8,1521.1z"/>
<path d="M1342.4,1499.4c4.2-0.9,24.5-2.2,28.1-1.8c-0.3,3.3,0.1,6.6-1.5,10c-1.8,0.1-3.6,0.3-5.4,0.4c-2,0.1-4,0.1-5.9,0.3
	c-1.7,0.2-2.2,0.7-2.6,2.3c-0.1,0.4-0.1,0.8-0.2,1.3c-0.1,1-0.3,1.9-0.5,3.2c0.8,0.1,1.4,0.3,2.1,0.2c3.5-0.2,7-0.4,10.6-0.6
	c0.2,0.5,0.6,0.9,0.6,1.2c-0.3,2.9-0.8,5.8-1.2,8.9c-4.3,0.9-8.6,0-12.8,0.9c-0.9,2.5-1.4,4.9-1.1,7.7c4.6,0.4,9-0.7,13.7-0.5
	c0.1,0.7,0.4,1.3,0.4,2c-0.3,2.7-0.6,5.3-0.9,7.7c-1.1,1.2-2.2,1.1-3.3,1.1c-5.6,0.3-11.3,0.7-16.9,1c-2.5,0.2-5,0.4-7.4,0.7
	c-1.2-0.9-1-1.9-0.9-2.9c1.3-10.5,2.6-21,3.9-31.5C1341.6,1507.2,1341.9,1503.4,1342.4,1499.4z"/>
<path class="st1" d="M1840.1,1651.7c1.1-0.9,1.9-1.6,2.8-2.3c2.5-1.9,5.4-2.4,8.4-1.9c2.9,0.5,4,1.7,4.2,4.5c0.1,2,0.2,4-0.1,5.9
	c-0.5,4.2-1.2,8.4-1.8,12.6c-0.1,0.7-0.4,1.3-0.6,2.1c-2.3,1-4.7,0.8-7.1,0.8c-0.7-1.8-0.3-3.3-0.2-4.8c0.3-2.8,0.8-5.6,1.2-8.4
	c0.2-1.1,0.3-2.3,0.3-3.4c-0.1-2.1-2-3.2-3.9-2.5c-1.6,0.6-2.6,1.8-2.9,3.4c-0.6,3-1.2,6.1-1.7,9.2c-0.3,2.1-0.6,4.2-0.8,6.4
	c-2.5,1.1-5,0.7-7.5,0.8c-0.4-2.5,0.1-4.6,0.3-6.6c0.4-2.8,0.8-5.6,1.2-8.4c0.1-0.6,0.1-1.1,0-1.7c-0.2-1.6-1.2-2.5-2.9-2.4
	c-2.6,0.1-4,1.4-4.6,4.2c-0.4,2.4-0.7,4.8-1,7.1c-0.4,2.6-0.8,5.3-1.2,8c-2.6,1.1-5.1,0.4-7.6,0.8c-1-3.1,0.5-5.6,0.5-8.2
	c0.1-2.8,0.6-5.6,1-8.4c0.4-2.6,0.8-5.3,1.2-7.9c2.4-1.1,4.7-1.2,7.1-1.1c0.4,0.7,0.7,1.3,1,1.9c0.3,0,0.6,0.1,0.8-0.1
	c1.9-1.5,4-2.5,6.5-2.8C1836.7,1647.9,1837.4,1648.2,1840.1,1651.7z"/>
<path d="M1441.3,1538.6c-4.9-0.1-9.3,0.9-14.1,0.7c-0.5-4.1,0.8-7.9,1-11.8c0.2-3.8,1-7.5,1.5-11.3c0.5-3.9,1.1-7.8,1.6-11.7
	c0.4-3.8,0.9-7.5,1.5-11.1c3.8-1.2,10.8-1.7,14.3-1.2c0.1,0.1,0.2,0.2,0.3,0.3c0.1,0.1,0.1,0.3,0.1,0.4c0,0.6,0.1,1.1,0,1.7
	C1445.3,1509.1,1443.3,1523.6,1441.3,1538.6z"/>
<path class="st1" d="M1554.9,1660.3c-1.2,2.6-1.2,2.6-1.1,5.5c4.1,0.7,8.3-0.5,12.8,0c-0.1,2.2-0.2,4.3-1.1,6.4
	c-4.1,1-8.4,0.1-12.6,0.9c-0.6,2.1-1.3,4-0.9,6.4c4.9,0.3,9.6-0.4,14.6-0.3c0.6,2.4-0.4,4.5-0.6,6.9c-1.6,0.2-3.1,0.5-4.6,0.5
	c-5.6,0.4-11.3,0.7-16.9,1c-0.8,0-1.6-0.2-2.6-0.4c1.7-11.3,3.3-22.5,4.9-33.6c2.8-1,5.5-0.6,8.2-0.8c2.7-0.2,5.4-0.3,8.1-0.4
	c2.7-0.1,5.3-0.4,8.2-0.2c0.4,2.6,0,4.9-0.3,7.4c-1,0.1-1.8,0.3-2.6,0.3c-3.4,0.1-6.8,0-10.2,0.1
	C1557,1660.1,1555.9,1660.2,1554.9,1660.3z"/>
<path class="st1" d="M1659.1,1679.7c-0.5,1.1-1,1.9-1.5,3c-2.3,0.4-4.6,0.6-6.9,0c-0.2-4.4,2.9-28.6,4.4-34.2c2.3-1,4.7-0.9,7.4-0.6
	c0.5,3.5-1.1,6.7-0.6,10.4c0.8-0.3,1.5-0.5,2-0.8c1.4-1.1,3-1.6,4.7-1.5c4.1,0.1,6.3,1.5,7.7,5.4c0.8,2.3,1.3,4.6,0.7,7
	c-0.4,1.8-0.7,3.6-1.3,5.3c-0.4,1.3-1.1,2.6-1.9,3.8c-1.7,2.5-3.9,4.5-7.1,4.9C1663.9,1682.7,1661.2,1682.1,1659.1,1679.7z
	 M1659.6,1671.5c0,0.7,0,1,0,1.3c0,1.7,0.5,3,2.2,3.7c1.6,0.6,3.5,0.2,4.5-1.3c2.1-3.3,3.2-6.9,2.2-10.8c-0.5-1.9-1.8-2.7-3.8-2.5
	c-1.4,0.1-2.3,0.9-3,2C1660.2,1666.4,1660,1669.2,1659.6,1671.5z"/>
<path class="st1" d="M1860.9,1654.7c0.5-3.7,2.4-5.5,5.1-6.7c4-1.8,8.2-1.9,12.4-0.9c3.5,0.9,5.1,3.3,4.9,6.9
	c-0.1,1.8-0.4,3.6-0.6,5.5c-0.5,4-1,8.1-1.5,12.2c-2.9,0.1-5.7,1.3-8-1.2c-1.6,0.8-3.2,1.8-4.9,2.4c-1.4,0.5-3,0.7-4.5,0.7
	c-4.8-0.2-7.3-3.9-5.9-8.5c1-3.4,3.2-5.7,6.5-6.7c2.3-0.7,4.7-1,7-1.3c1.1-0.2,2.2-0.2,3.4-0.3c0.7-1.5,0.8-2.8-0.5-3.9
	c-1.3-1.1-3.9-1.1-5,0.3C1867,1656.1,1864.2,1655.3,1860.9,1654.7z M1874.4,1661c-2.7,0-4.9,0.4-6.9,1.6c-1.2,0.7-1.8,2.2-1.4,3.2
	c0.4,1.1,1.7,2.1,3,2c1.6,0,3-0.7,4.1-1.9C1874.4,1664.8,1874.9,1663.2,1874.4,1661z"/>
<path class="st1" d="M1738.7,1652.8c2.6,0,4.5,0,6.7,0c0.3,0.6,0.7,1.3,1.2,2.2c0.5-0.3,1-0.5,1.4-0.9c2-1.9,4.5-2.2,7.1-2.2
	c4.2,0.1,6.3,2.4,6.2,6.9c-0.1,1.5-0.4,3.1-0.6,4.6c-0.7,4.4-1.3,8.9-2,13.4c-2.5,0.8-5,0.9-7.7,0.7c-0.1-1-0.2-1.8-0.1-2.6
	c0.4-2.9,0.9-5.8,1.3-8.8c0.2-2,0.3-3.9,0.3-5.9c0-1.5-1.1-2.2-2.6-2c-2.2,0.3-3.7,1.5-4.2,3.6c-0.7,3.1-1.2,6.4-1.8,9.5
	c-0.4,2.2-0.7,4.4-1,6.6c-2.5,1.2-4.9,0.8-7.2,0.7c-0.7-1.6-0.3-3,0-4.3C1736.5,1667.2,1736.9,1660,1738.7,1652.8z"/>
<path class="st1" d="M1732.3,1668.4c-5.8,0.4-11.3,0-16.9,1.3c0.3,1.2,0.3,2.2,0.7,3.1c0.8,1.7,2.4,2.4,4.2,1.9
	c0.8-0.2,1.7-0.5,2.3-1c2.6-2.1,5.4-2,8.7-1.2c-0.3,0.8-0.4,1.5-0.7,2c-1.7,2.6-4,4.3-6.9,5.3c-2.8,0.9-5.6,1-8.4,0.7
	c-4.1-0.4-7.7-3.8-7.9-8.2c-0.4-7.7,2.2-14.5,10.2-17.7c3-1.2,6.1-1.3,9.1-0.3c3.4,1.1,5.4,3.4,5.8,7.1
	C1732.9,1663.5,1732.8,1665.7,1732.3,1668.4z M1724.9,1664.1c-0.1-3-0.2-4.1-1-4.3c-1.3-0.3-2.8-0.6-4.1-0.3c-2,0.6-2.9,2.3-3.1,4.6
	C1719.5,1664.9,1722.1,1664.4,1724.9,1664.1z"/>
<path class="st1" d="M1702,1680.3c-2.5,0-4.4,0-6.4,0c-0.4-0.8-0.8-1.5-1.2-2.2c-0.4,0.1-0.8,0-0.9,0.2c-2.5,2.8-5.8,3.2-9.3,2.9
	c-2.7-0.2-4-1.5-4.5-4.2c-0.1-0.6-0.2-1.1-0.1-1.7c0.8-6.3,1.7-12.5,2.5-18.7c2.9-1,3.7-1.1,7.7-0.7c0.5,1.2,0.1,2.4,0,3.6
	c-0.4,2.9-0.9,5.9-1.3,8.8c-0.2,1.4-0.2,2.8-0.2,4.2c0.1,2,1.6,3,3.5,2.5c1.8-0.5,3-1.6,3.3-3.5c0.7-3.9,1.3-7.8,1.9-11.7
	c0.2-1.5,0.4-3,0.7-4.6c2.5-0.7,4.8-0.7,7.4-0.6c0.1,1.3,0.3,2.4,0.1,3.5C1704.3,1665.5,1703.4,1672.8,1702,1680.3z"/>
<path class="st1" d="M1634,1683.4c-4.9,0.8-5.2,0.8-7-1.1c-0.3,0-0.6,0-0.8,0.1c-2.6,2.5-5.8,2.8-9.1,2.4c-4.8-0.5-7-4.6-5-8.9
	c1.2-2.6,3.3-4.2,6-5c2.1-0.7,4.4-1.1,6.6-1.5c0.8-0.2,1.7-0.2,2.5-0.3c0.9-0.2,1.6-0.6,1.8-1.6c0.3-1.1-0.1-2-1-2.6
	c-1.3-0.9-2.7-0.8-4-0.1c-0.6,0.3-1.3,0.7-1.7,1.3c-1.4,1.7-3.1,1.8-5,1.3c-0.5-0.1-1-0.3-1.5-0.5c-0.6-1.3-0.2-2.4,0.5-3.2
	c0.9-1,1.9-2.1,3.1-2.8c4.2-2.3,8.6-2.6,13.1-0.8c2.8,1.1,4.4,3.8,4,6.8c-0.5,4.8-1.2,9.5-1.8,14.3
	C1634.5,1681.9,1634.2,1682.6,1634,1683.4z M1627.4,1674.1c-1.6-0.4-3-0.5-4.3-0.1c-1,0.3-2,1.1-2.7,1.8c-0.8,0.8-0.7,2.1,0,3.1
	c0.6,0.9,1.6,1.4,2.6,1.1c1.2-0.4,2.4-1,3.3-1.7C1627.5,1677.4,1627.8,1676,1627.4,1674.1z"/>
<path class="st1" d="M1776,1669.4c1.9-1.1,3.8-1.2,5.6-1.3c0.9-0.1,1.5,0.4,2.1,1.1c1.6,1.9,3.9,2,6,0.7c1.2-0.7,1.1-2.5-0.1-3.1
	c-0.7-0.4-1.6-0.5-2.4-0.7c-2-0.6-4.1-0.9-6.1-1.7c-2.8-1.1-3.7-3.7-3-6.6c0.6-2.3,2-4.1,4-5.2c3.6-2,7.4-2.7,11.4-1.8
	c2.8,0.7,4.8,2.2,5.9,4.9c-2.4,1.9-2.4,1.9-6.7,1.9c-0.9-0.8-1.8-1.6-2.9-2.6c-1.1,0.4-2.2,0.7-3.1,1.3c-0.5,0.3-1.1,1.1-1,1.7
	c0,0.5,0.8,1.2,1.3,1.4c1,0.4,2.2,0.5,3.3,0.7c1.1,0.2,2.2,0.3,3.3,0.7c5.4,1.8,6.8,7.1,3,11.4c-0.7,0.8-1.6,1.6-2.6,2.1
	c-4.5,2.2-9.1,2.8-13.9,1.2C1777.5,1674.4,1776.1,1672.6,1776,1669.4z"/>
<path class="st1" d="M1571,1679.3c1.5-0.1,2.8-0.2,4.2-0.3c1.3-0.1,2.3,0.2,3.4,1.3c1.9,1.9,4.7,1.6,6.2-0.4c0.8-1,0.4-2.4-0.7-2.8
	c-2.2-0.7-4.3-1.2-6.5-1.8c-0.8-0.2-1.6-0.5-2.4-0.9c-2.4-1.4-3.2-3.9-2.3-6.6c0.8-2.3,2.3-3.9,4.3-5c3.6-2,7.6-2.2,11.5-1.2
	c2.6,0.7,4.5,2.3,4.4,5.3c-1,1-2.2,1.4-3.5,1.5c-1.4,0.2-2.6,0.1-3.8-1.2c-1.7-1.8-3.6-1.6-5.5,0.1c-0.7,0.6-0.7,1.8,0.2,2.1
	c1.2,0.5,2.4,0.7,3.6,1.1c2,0.6,4.1,0.9,6.1,1.7c2.1,0.8,3,2.5,3,4.7c0,3.4-1.5,6-4.4,7.7c-3.3,1.8-6.8,2.7-10.6,2.5
	c-2.7-0.1-4.9-1.2-6.6-3.3C1570.8,1682.6,1570.3,1681.4,1571,1679.3z"/>
<path class="st1" d="M1605.1,1678.4c1.3,0.7,2.2,1.1,3,1.5c0.6,0.9,0.5,2.1-0.7,5.3c-2.3,0.6-4.7,0.5-7.1,0.3
	c-1.8-0.2-2.9-1.1-3.2-2.8c-0.2-1.5-0.1-3.1,0.1-4.6c0.5-3.9,1.1-7.8,1.7-11.8c-0.9-0.5-1.8-0.9-2.9-1.5c0.2-1.2,0.4-2.6,0.6-4
	c1.2-0.5,2.2-0.8,3.2-1.2c0.5-2.1,0.9-4,1.4-5.9c2.4-1.1,4.7-1.1,6.9-0.6c1.1,2.3-0.8,4.3,0,6.5c1.2,0.2,2.4,0.3,3.5,0.5
	c0.3,2.6,0.3,2.6-0.9,5c-1,0.1-2.1,0.2-3.1,0.2c-0.2,0.3-0.5,0.5-0.6,0.7C1606.5,1670.1,1605.8,1674.1,1605.1,1678.4z"/>
<path class="st1" d="M1808.7,1675.2c-1.7,0-3.3,0.1-4.8,0.1c-0.8,0-1.6-0.2-2.7-0.3c0.5-8.2,2.6-15.9,3.2-23.8
	c2.7-1,5.1-1.2,7.7-0.7c0.1,0.6,0.3,1,0.2,1.4c-0.9,7.1-1.8,14.2-2.8,21.3C1809.5,1673.7,1809.1,1674.2,1808.7,1675.2z"/>
<path class="st1" d="M1766.7,1652.1c1.7-0.1,3.1-0.2,4.5-0.2c0.8,0,1.7,0.1,2.3,0.2c1.1,1.1,0.7,2.3,0.5,3.4
	c-0.8,6.3-1.6,12.5-2.5,18.8c-0.2,1.8-0.9,2.5-2.7,2.6c-1.7,0.1-3.3,0.3-5.2-0.3c-0.1-1-0.3-1.9-0.2-2.8c0.9-6.6,1.8-13.1,2.7-19.6
	C1766.2,1653.6,1766.4,1653.1,1766.7,1652.1z"/>
<path class="st1" d="M1891.7,1636.3c2.9-0.9,5.7-0.7,8.8-0.8c0,0.8,0.1,1.5-0.1,2.1c-2.4,6.7-2.8,14.1-6.4,20.5c-1.6,0-3,0-4.5,0
	c-0.2-0.7-0.5-1.2-0.4-1.7C1889.9,1649.8,1890.8,1643.1,1891.7,1636.3z"/>
<path class="st1" d="M1908.3,1657.3c-1.9,0.3-3.4,0.6-4.8,0.2c-0.5-4.2,1.3-16.9,2.9-21.1c3.4-1.1,4.4-1.2,8.9-0.7
	c-0.6,3.7-2.2,7.2-3.3,10.7C1910.9,1649.9,1909.6,1653.4,1908.3,1657.3z"/>
<path class="st1" d="M1895.2,1662.3c-0.2,3.2-0.6,6.2-1.7,9.2c-2.4,0.6-4.7,0.6-7.2,0.1c-0.4-3,0.3-5.7,0.9-8.4
	c0.1-0.4,0.7-1,1.2-1.1C1890.6,1661.7,1892.9,1661.4,1895.2,1662.3z"/>
<path class="st1" d="M1908,1661.8c0.6,3.4-0.6,6.1-0.9,9.1c-2.5,0.6-4.8,0.8-7.3-0.1c0-2.9,0.2-5.7,1.1-8.3
	C1903.2,1661.5,1905.4,1661.7,1908,1661.8z"/>
<path class="st1" d="M1812.3,1646.6c-2.2,0.4-4.2,0.8-6.4-0.1c-0.7-2.1,0.1-4,1.4-5.3c1.9-1.9,4.5-1.9,7-1.6
	C1814.5,1642.4,1814.5,1642.4,1812.3,1646.6z"/>
<path class="st1" d="M1767.7,1648.5c0.6-1.7,1-3.3,1.6-4.8c0.5-1.3,1.5-2,2.8-2.3c1.8-0.3,3.6-0.6,5.2-0.3c0.2,0.5,0.5,0.7,0.4,0.9
	c-0.7,2.5-2.7,4.2-4.2,6.1c-0.3,0.4-1,0.6-1.5,0.6C1770.7,1649,1769.3,1649.1,1767.7,1648.5z"/>
<path class="st1" d="M1631.4,1655.7c-2.3,0-4.1,0-5.9,0c1-6.1,4.5-8.5,10.1-7c0,0.3,0.2,0.6,0.1,0.8
	C1634.3,1651.5,1632.9,1653.5,1631.4,1655.7z"/>
<path class="st2" d="M1639.6,1539.3c-25.5,0-46.1,20.7-46.1,46.1s20.7,46.1,46.1,46.1c25.5,0,46.1-20.7,46.1-46.1
	C1685.7,1559.9,1665.1,1539.3,1639.6,1539.3z M1628.1,1608.5l0-46.1l38.4,23L1628.1,1608.5z"/>
<path class="st3" d="M1996.1,1476.9l-17.2,2.9l22.8,134.5c-30-0.8-57.3,26.6-53.2,50.8c3.4,20.3,21.4,28.1,38.8,25.1
	c20.8-3.5,41-22.2,36-52.3l-18.6-109.5c29,14.7,53,19.6,53.6,52.7c9.8-16.9,12.6-27,10.8-37.6
	C2062.7,1505.4,2000.5,1503,1996.1,1476.9z"/>
<path class="st1" d="M1424.6,2453.3c-0.1-1.2-0.2-2.1-0.1-2.9c1-8.3,2.1-16.5,3.1-24.8c1-8.1,1.8-16.3,2.8-24.4
	c0.6-4.6,1.2-9.2,1.8-13.9c0.5-3.8,1-7.6,1.5-11.3c0.3-2,0.9-2.5,2.7-2.6c7.1-0.4,14.1-0.7,21.2-1c0.7,0,1.4,0.2,2.3,0.4
	c-0.2,4.9-1.3,9.6-1.7,14.3c-0.5,4.9-1.1,9.8-1.7,14.7c-0.6,4.8-1.3,9.5-1.9,14.3c-0.6,4.8-1.2,9.5-1.8,14.4
	c2.2,0.7,4.3,0.2,6.3,0.1c6.3-0.4,12.7-0.9,19-1.4c1.1-0.1,2.2,0,3.6,0c-0.1,6-1.5,11.6-1.6,17.3c1.1-0.1,1.1-1,1.3-1.6
	c6.8-16.4,13.6-32.9,20.5-49.3c3.2-7.7,6.5-15.3,9.9-23c2.2-4.9,1.8-4.3,6.9-4.6c7.8-0.4,15.5-0.9,23.3-1.4c3.7-0.3,4.4,0,4.8,3.9
	c0.4,4.3,1.3,8.6,2,13c1.8,10.9,3.6,21.7,5.5,32.6c1.6,9.5,3.3,18.9,4.9,28.4c0.1,0.5,0,1.1,0,1.7c-0.7,0.2-1.2,0.5-1.7,0.6
	c-5.1,0.6-19.7,1.2-23,0.9c-1-1.8-0.8-4-1.3-6c-0.5-2,0-4.2-1.1-6.3c-2.7-0.5-5.3,0.2-7.9,0.3c-2.7,0.1-5.4,0.2-8.1,0.3
	c-2.7,0.2-5.4,0-8,0.7c-2.3,4-3.1,8.5-5,12.7c-25.3,1.3-50.4,2.7-75.5,4C1426.7,2453.6,1425.9,2453.4,1424.6,2453.3z M1525.8,2389.4
	c-0.9,0.1-1.1,0.8-1.3,1.5c-0.7,2.3-1.4,4.6-2.2,6.8c-2,5.7-4.1,11.4-6.1,17.1c-0.3,1-0.5,2.1-0.7,3.1c5.3,0.7,10.9,0.3,13.9-1
	C1529.5,2413.8,1527.7,2399.8,1525.8,2389.4z"/>
<path class="st1" d="M1610.9,2443.5c-3.2,0.3-6,0.6-8.8,0.8c-3.4,0.3-6.8,0.5-10.1,0.7c-2.3,0.1-2.8-0.5-2.5-2.6
	c1-8.3,2-16.5,3.1-24.8c0.6-5.2,1.3-10.4,2-15.5c0.7-5.6,1.4-11.2,2.2-16.8c0.8-6.6,1.7-13.2,2.5-19.7c0.1-0.7,0.3-1.3,0.5-2.2
	c0.9-0.2,1.6-0.6,2.4-0.6c10.1-0.7,20.3-1.4,30.7-1.5c0.4,0.9,0.9,1.8,1,2.7c0.7,6,1.3,12.1,1.9,18.1c0.7,7,1.3,14.1,2,21.1
	c0.1,1.3,0.1,2.7,1,4.5c0.6-1.2,1-1.9,1.3-2.7c4.3-13.1,8.6-26.3,13-39.4c0.2-0.5,0.4-1.1,0.6-1.6c1.5-4.1,1.5-4,5.7-4.2
	c7.1-0.4,14.1-0.8,21.2-1.3c1.6-0.1,3.1-0.3,4.7-0.3c2.5-0.1,2.9,0.4,2.7,3c-0.4,6.1-1.5,12-2.8,18c-0.8,3.7-1.4,7.5-1.8,11.3
	c-0.8,7.7-1.3,15.5-0.9,23.3c0.1,3.1-0.4,6.2-0.7,9.3c-0.6,5.3-1.3,10.6-2,16.1c-0.9,0.3-1.7,0.7-2.5,0.7
	c-5.2,0.4-10.4,0.7-15.7,1.1c-0.6,0-1.1,0-1.7-0.1c-1.1-0.1-1.8-0.9-1.7-2c0.3-2.9,0.7-5.9,1-8.8c0.7-6.7,1.4-13.5,2.2-20.2
	c0.4-3.8,0.9-7.6,1.2-11.4c0.3-3.1,0.4-6.2,0.6-9.6c-1.5,1.7-1.5,1.7-2.5,4.9c-0.6,1.9-1.2,3.8-1.9,5.6c-0.6,1.7-1.3,3.5-1.9,5.2
	c-0.7,1.9-1.3,3.7-2,5.6c-0.6,1.7-1.2,3.5-1.9,5.2c-0.6,1.7-1.3,3.4-1.9,5.2c-0.7,1.9-1.3,3.7-2,5.6c-0.6,1.7-1.2,3.5-1.8,5.2
	c-0.7,1.9-1.4,3.7-2.1,5.6c-0.7,1.7-1.3,3.4-2.1,5.3c-6.3,0.1-12.5,1.1-18.9,0.8c-1.3-8.4-2.1-16.6-3.1-24.8c-1-8-1.8-16.1-3.3-24.1
	c-1.3,5.4-1.8,10.8-2.6,16.1c-0.7,5.6-1.5,11.2-2.2,16.8C1612.4,2432.2,1611.7,2437.6,1610.9,2443.5z"/>
<path class="st1" d="M1985.9,2345c4.9-1.2,21.4-2,26-1.4c0.1,0.1,0.2,0.2,0.2,0.3c0.1,0.1,0.1,0.3,0.1,0.4
	c-3.8,26.7-7.7,53.4-11.5,80.2c-1.2,0.2-2.1,0.5-3.1,0.5c-7.9,0.4-15.8,0.8-23.7,1.2c-0.7,0-1.4,0.1-2.1,0c-0.9,0-1.6-0.5-2-1.3
	c-0.5-0.9-0.8-1.8-1.2-2.7c-4.8-13-9.6-26-14.4-39c-0.3-0.8-0.7-1.5-1.2-2.6c-0.9,1.3-0.6,2.4-0.7,3.4c-0.2,1.1-0.4,2.2-0.5,3.4
	c-0.1,1.1-0.2,2.3-0.3,3.4c-0.1,1.1-0.4,2.2-0.5,3.4s-0.1,2.3-0.3,3.4c-0.1,1.1-0.3,2.2-0.5,3.4c-0.1,1.1-0.2,2.2-0.4,3.4
	c-0.1,1.1-0.3,2.2-0.4,3.4c-0.1,1.1-0.2,2.2-0.4,3.4c-0.1,1.1-0.2,2.2-0.4,3.4c-0.1,1.1-0.3,2.2-0.4,3.4c-0.1,1.1-0.2,2.3-0.3,3.4
	s-0.3,2.2-0.5,3.4c-0.2,1.1-0.3,2.2-0.5,3.5c-4,0.8-8,0.4-11.9,0.7c-3.8,0.3-7.6,0.7-11.4,0.4c-0.8-1.3-0.1-2.6-0.1-3.8
	c0-1.1,0.2-2.3,0.3-3.4c1-8.1,2.1-16.3,3.2-24.4c1-7.7,2.1-15.4,3.1-23.1c0.7-5.6,1.3-11.2,2-16.8c0.3-2.9,0.6-5.9,1.1-8.8
	c0.2-1.7,0.8-2.2,2.5-2.4c0.4-0.1,0.8-0.1,1.3-0.1c8.6-0.4,17.2-0.8,25.8-1.2c0.8,0,1.7,0.1,2.6,0.2c2.1,4.9,3.5,9.9,5.2,14.8
	c1.8,5.1,3.4,10.2,5.1,15.3c1.7,4.9,3,9.9,4.9,14.7c1.3-5,1.4-10,1.8-14.9c0.5-4.9,1-9.8,1.6-14.8
	C1984.5,2355.3,1985.2,2350.3,1985.9,2345z"/>
<path class="st1" d="M1837.4,2395.5c1.5,0.7,2.7,1.1,3.8,1.6c3.9,1.8,5.9,4.8,6,9c0.1,2.8,0.1,5.7-0.2,8.5c-0.5,5.9-1.3,11.8-2,17.9
	c-0.5,0.2-1.1,0.6-1.8,0.6c-7.5,0.4-15,0.8-22.4,1.1c-0.4,0-0.8-0.2-1.5-0.4c0-0.8-0.2-1.6-0.1-2.4c0.7-5.2,1.5-10.3,2.2-15.5
	c0.3-2,0.4-3.9-0.3-5.9c-0.6-1.6-1.6-2.6-3.3-3c-0.3-0.1-0.6-0.1-0.8-0.1c-2.9-0.4-13.2-0.1-17.1,0.6c-1.4,8.8-1.9,17.8-3.2,26.8
	c-2.7,1.1-5.6,0.7-8.3,1c-2.7,0.3-5.4,0.4-8,0.6c-2.8,0.2-5.6,0.4-8.6,0.6c-0.2-1-0.4-1.8-0.4-2.6c0.1-4.6,1.2-8.9,2.2-13.4
	c1.4-6.3,2.9-12.7,4.1-19.1c0.5-2.8,0.4-5.6,0.5-8.4c0-1.1,0-2.3-0.2-3.4c-0.7-6.2-0.1-12.4,0.6-18.6c0.5-4.8,1.1-9.5,1.7-14.3
	c0-0.4,0.2-0.8,0.3-1.1c0.9-1.1,2.1-1,3.2-1.1c4.1-0.3,8.2-0.6,12.3-0.8c10.2-0.5,20.3-1.1,30.5-1.5c3.4-0.1,6.8,0.1,10.1,0.5
	c2.4,0.3,4.7,0.9,7,1.7c6.2,2.2,9.6,6.9,10.2,13.3c0.3,3.1,0.1,6.2-0.5,9.3c-1.5,8.3-6.2,14-14.1,17.1
	C1838.7,2394.6,1838.2,2395,1837.4,2395.5z M1804.4,2372.3c-0.8,5.5-1.5,10.6-2.2,15.9c1.1,0.1,2.1,0.4,3,0.3
	c2.8-0.1,5.6-0.2,8.5-0.4c1.7-0.1,3.4-0.3,5-0.7c2.6-0.6,4.9-1.7,5.9-4.3c0.8-2.1,1.3-4.3,1.2-6.6c-0.1-2.2-1.2-3.8-3.3-4.4
	c-1.3-0.4-2.8-0.6-4.1-0.6c-3.5,0-7,0.1-10.6,0.2C1806.8,2371.9,1805.9,2372.1,1804.4,2372.3z"/>
<path class="st1" d="M1918.9,2408.9c-0.8,6.9-1.7,13.6-2.5,20.1c-1.3,1.1-2.6,0.8-3.9,0.9c-9.6,0.4-19.2,0.8-28.8,1.2
	c-7.9,0.4-15.8,0.9-23.7,1.3c-2.5,0.1-5,0.5-7.8-0.1c0-1.3-0.1-2.4,0-3.5c1-7,2-14,3-20.9c0.7-4.8,1.2-9.5,1.9-14.3
	c0.6-4.9,1.3-9.8,2-14.7c0.8-5.7,1.6-11.5,2.3-17.2c0.4-2.8,0.6-5.6,1-8.4c0.3-2.1,1-2.8,3.3-3.1c0.8-0.1,1.7-0.2,2.5-0.2
	c8.7-0.5,17.5-1,26.2-1.5c6.9-0.4,13.8-0.8,20.7-1.2c3-0.2,5.9-0.3,8.9-0.4c0.8,0,1.6,0.1,2.4,0.2c0.6,1.7,0.4,3.3,0.1,4.8
	c-0.9,5.6-1.1,11.2-2.4,16.9c-6.4,0.2-12.6,0.1-18.8,0.7c-6,0.5-12.1,0-18.2,1.2c-1.1,3.2-1.3,6.4-1.8,9.7c3,0.9,5.9-0.4,8.8-0.4
	c3.1,0.1,6.2-0.3,9.3-0.5c3-0.1,5.9-0.3,8.9-0.4c2.9,0,5.8-0.7,8.7-0.4c0.5,3.4-0.3,11.5-1.7,18.7c-0.8,1.1-2,0.9-3.1,1
	c-7.6,0.4-15.2,0.7-22.9,1.1c-3.5,0.2-7,0.5-10.7,0.8c-0.7,3.3-1.3,6.4-1.1,9.8c2.3,0.6,4.4,0.2,6.5,0.1c7.5-0.5,14.9-1,22.4-1.5
	c1.8-0.1,3.7-0.3,5.5-0.3C1917.1,2408.5,1917.9,2408.8,1918.9,2408.9z"/>
<path class="st1" d="M2071,2340.3c0.4,1.4,0.8,2.6,1,3.8c2.5,14,4.9,28.1,7.3,42.1c1.8,10.2,3.5,20.3,5.2,30.5
	c0.2,1.4,0.2,2.8,0.3,4.3c-2.9,1.1-5.7,0.6-8.5,1c-2.8,0.3-5.6,0.4-8.5,0.5c-2.8,0.2-5.6,0.3-8.3,0.4c-1.6-2.1-1-4.3-1.4-6.3
	c-0.4-2-0.7-4.1-1-6.4c-2.9-0.7-5.5,0.2-8.1,0.2c-2.7,0-5.4,0.1-8.1,0.3c-2.7,0.1-5.3,0.4-8,0.6c-2.5,3.7-3.2,8-4.9,11.7
	c-3.2,0.9-20.7,2-25,1.6c-0.8-1.3,0.1-2.4,0.5-3.5c2.3-5.5,4.7-10.9,7.1-16.3c6-14.2,12-28.3,18.1-42.5c2.5-5.8,5.1-11.6,7.6-17.5
	c0.9-2.1,2.2-2.9,4.5-3c8.9-0.4,17.8-1,26.7-1.5C2068.4,2340.3,2069.4,2340.3,2071,2340.3z M2049.8,2363.2c-1,3.2-2,6.4-3,9.5
	c-1.1,3.3-2.4,6.6-3.3,10c-0.9,3.2-2.4,6.2-2.9,9.9c2.5-0.2,4.7-0.3,7-0.5c2.2-0.2,4.5,0.3,6.8-0.9
	C2053.5,2381.8,2051.7,2372.6,2049.8,2363.2z"/>
<path class="st1" d="M1466.9,2307.8c1-0.2,1.5-0.4,2-0.5c5.5-0.4,11-0.7,16.5-1c0.4,0,0.8,0.2,1.4,0.3c1.5,6.7,1,13.7,2.4,20.9
	c0.5-0.6,1-1,1.1-1.4c1.8-5.8,3.5-11.6,5.2-17.5c0.2-0.7,0.4-1.3,0.7-2c0.3-0.9,0.9-1.4,1.9-1.5c0.4-0.1,0.8-0.1,1.3-0.2
	c5.4-0.4,10.7-0.8,16.1-1.1c0.4,0,0.8,0.1,1.1,0.2c0.2,0.2,0.3,0.2,0.4,0.4c0.1,0.1,0.2,0.3,0.1,0.4c-0.3,3.9-4.9,42.6-5.8,45.5
	c-3.9,0.9-7.9,1.1-12.2,0.9c-0.5-3.4,0.1-6.6,0.5-9.7c0.4-3.1,0.7-6.2,1-9.3c0.3-3.2,0.6-6.4,0.4-9.8c-0.4,0.7-0.8,1.3-1,2
	c-2.3,7.7-4.5,15.5-6.8,23.2c-0.2,0.7-0.4,1.3-0.6,2c-0.4,1.6-1.3,2.4-3,2.4c-2.6,0-5.3,0.6-7.9,0.2c-1.7-4.9-1.1-9.7-1.8-14.5
	c-0.7-4.7-1-9.5-1.7-14.2c-1.3,4.8-1.4,9.7-2.1,14.6c-0.7,4.7-1.1,9.5-1.7,14.4c-4.2,1.5-8.4,0.9-12.5,1.4
	c-0.6-4.1,0.1-11.2,1.8-23.1C1464.8,2323.1,1465.3,2315.5,1466.9,2307.8z"/>
<path class="st1" d="M1627.7,2295.9c7.6-0.5,14.9-1.1,22.3-1.5c2.4-0.1,4.8,0,7.1,0.7c3.7,1.2,5.7,3.6,5.8,7.4
	c0.1,1.8,0.1,3.7-0.2,5.5c-0.5,3.8-2.2,7-5.8,8.8c-0.9,0.4-1.7,0.9-2.9,1.6c0.8,0.6,1.4,1.1,2,1.5c1.7,1.2,2.7,2.9,2.6,5
	c0,2.4-0.1,4.8-0.3,7.2c-0.3,2.8-1,5.5,0.2,8.3c-3.8,0.9-11.9,1.4-15.2,1c-0.4-1.4,0-3,0-4.5c0-1.4,0.2-2.8,0.3-4.2
	c0.1-1.4,0.4-2.8,0.4-4.2c0-3.2-1.2-4.1-4.6-3.8c-0.3,0-0.5,0.2-1.1,0.5c-1.6,5.5-1.1,11.5-2.8,17.3c-4.7,0.3-9.3,0.6-14,0.9
	c-0.7-1.6-0.4-3-0.2-4.4c1.6-11.3,3.2-22.6,4.7-33.9C1626.6,2302.1,1626.7,2299.2,1627.7,2295.9z M1641.1,2304.5
	c-1.1,1.7-1,3.2-1.1,4.5c-0.2,1.5-0.5,3.1-0.6,4.6c-0.1,0.9,0.6,1.7,1.6,1.6c1-0.1,1.9-0.3,2.9-0.5c2.2-0.5,3.3-2,3.8-4.1
	c0.2-1,0.3-2,0.2-2.9c-0.1-1.8-1.1-2.9-2.9-3.1C1643.7,2304.4,1642.4,2304.5,1641.1,2304.5z"/>
<path class="st1" d="M1620,2312.2c-0.7,5.4-1.4,10.5-2.2,15.7c-0.2,1.4-0.6,2.8-1,4.1c-2.2,7.5-7.2,11.9-14.9,13.2
	c-3.1,0.5-6.2,0.8-9.3,0.7c-1.4-0.1-2.8-0.3-4.2-0.6c-5.4-1.4-8.4-5-8.7-10.6c-0.2-3.4,0-6.8,0.7-10.1c0.9-4.4,1.5-8.9,2.6-13.3
	c1.7-6.7,6-11.1,12.7-12.9c4.8-1.3,9.7-2,14.7-0.9c1.4,0.3,2.7,0.7,4,1.3c3,1.4,4.8,3.9,5.3,7.2
	C1619.8,2308.2,1619.9,2310.3,1620,2312.2z M1594.8,2330.7c0,0.9,0,1.6,0,2.3c0,1.3,0.2,2.6,1.5,3.2c1.5,0.7,2.7,0,3.9-0.9
	c0.5-0.4,1-1,1.3-1.6c0.4-1,0.8-2.1,1-3.2c0.9-5.8,1.7-11.7,2.5-17.5c0.2-1.2,0.2-2.5,0.1-3.8c-0.2-2.6-2.3-3.7-4.5-2.3
	c-0.9,0.5-1.8,1.5-2.2,2.4c-0.8,1.9-1.2,4-1.7,6.1c-0.4,1.9-0.6,3.9-0.8,5.8C1595.6,2324.5,1595.2,2327.7,1594.8,2330.7z"/>
<path class="st1" d="M1695.8,2291.9c0.2,0.4,0.5,0.8,0.6,1.2c0.2,0.8,0.3,1.7,0.4,2.5c1.7,13.8,3.6,27.7,5,41.5
	c-0.5,0.3-0.9,0.7-1.2,0.7c-1.4,0.2-2.8,0.5-4.2,0.4c-2.9-0.1-5.8,1.2-8.8,0.5c-1.1-2.7,0-5.7-1.2-8.6c-3-0.3-5.8,0.4-8.7,0.4
	c-1.8,2.9-1.8,6.1-3.2,8.9c-2.7,0.7-9.3,1.1-13.7,0.8c0.1-0.6,0.1-1.3,0.2-1.9c3.3-10.2,6.6-20.4,10-30.6c1.3-4,2.7-8,4-12
	c0.6-1.9,1.8-3,4-3.1c4-0.2,7.9-0.6,11.8-0.9C1692.4,2291.7,1694.1,2291.4,1695.8,2291.9z M1685.9,2320.2c-0.3-5.2-0.4-10-1.1-14.9
	c-0.9,0.1-1.1,0.7-1.2,1.2c-1.2,4.6-3,9-3.8,13.9C1681.9,2320.8,1683.6,2320.8,1685.9,2320.2z"/>
<path class="st1" d="M1552.5,2331.9c0,1.9,0,3.3,0,4.7c0.1,1.4,0.9,2.4,2.3,2.6c1.6,0.3,3.1,0.1,4.4-1c2.5-2,2.3-5.5-0.4-7.1
	c-1-0.6-2-0.9-3.1-1.4c-2.2-0.9-4.5-1.7-6.7-2.7c-8.3-3.7-10.2-13.1-4.3-20.1c3.5-4.1,8.2-6,13.4-6.6c3.1-0.3,6.2-0.2,9.3-0.2
	c1,0,2,0.2,2.9,0.4c3.8,0.9,6.1,3.3,6.8,7.2c0.4,2.3,0.4,4.5-0.4,6.7c-2.9,1.2-8.9,1.6-13,0.7c-0.1-1.2-0.2-2.4-0.5-3.6
	c-0.3-1.4-1.4-2.1-2.8-2c-1.7,0.1-3,0.9-3.9,2.2c-1.2,1.6-0.8,3.7,0.9,4.8c1.2,0.7,2.6,1.1,3.9,1.7c3,1.3,6.1,2.4,8.9,4
	c5.1,2.9,6.4,6.2,5.4,12c-1.2,7.1-5.2,11.4-12,13.3c-5.5,1.6-11.2,1.6-16.8,0.8c-6.2-0.9-8.8-4.2-8.8-10.4c0-0.8,0-1.7,0.1-2.5
	c0.3-2.2,0.6-2.6,2.8-3C1544.7,2331.7,1548.4,2331.3,1552.5,2331.9z"/>
<path class="st1" d="M1433.1,2310.2c4.2-0.9,24.5-2.2,28.1-1.8c-0.3,3.3,0.1,6.6-1.5,10c-1.8,0.1-3.6,0.3-5.4,0.4
	c-2,0.1-4,0.1-5.9,0.3c-1.7,0.2-2.2,0.7-2.6,2.3c-0.1,0.4-0.1,0.8-0.2,1.3c-0.1,1-0.3,1.9-0.5,3.2c0.8,0.1,1.4,0.3,2.1,0.2
	c3.5-0.2,7-0.4,10.6-0.6c0.2,0.5,0.6,0.9,0.6,1.2c-0.3,2.9-0.8,5.8-1.2,8.9c-4.3,0.9-8.6,0-12.8,0.9c-0.9,2.5-1.4,4.9-1.1,7.7
	c4.6,0.4,9-0.7,13.7-0.5c0.1,0.7,0.4,1.3,0.4,2c-0.3,2.7-0.6,5.3-0.9,7.7c-1.1,1.2-2.2,1.1-3.3,1.1c-5.6,0.3-11.3,0.7-16.9,1
	c-2.5,0.2-5,0.4-7.4,0.7c-1.2-0.9-1-1.9-0.9-2.9c1.3-10.5,2.6-21,3.9-31.5C1432.2,2317.9,1432.6,2314.1,1433.1,2310.2z"/>
<path class="st1" d="M1930.8,2462.5c1.1-0.9,1.9-1.6,2.8-2.3c2.5-1.9,5.4-2.4,8.4-1.9c2.9,0.5,4,1.7,4.2,4.5c0.1,2,0.2,4-0.1,5.9
	c-0.5,4.2-1.2,8.4-1.8,12.6c-0.1,0.7-0.4,1.3-0.6,2.1c-2.3,1-4.7,0.8-7.1,0.8c-0.7-1.8-0.3-3.3-0.2-4.8c0.3-2.8,0.8-5.6,1.2-8.4
	c0.2-1.1,0.3-2.3,0.3-3.4c-0.1-2.1-2-3.2-3.9-2.5c-1.6,0.6-2.6,1.8-2.9,3.4c-0.6,3-1.2,6.1-1.7,9.2c-0.3,2.1-0.6,4.2-0.8,6.4
	c-2.5,1.1-5,0.7-7.5,0.8c-0.4-2.5,0.1-4.6,0.3-6.6c0.4-2.8,0.8-5.6,1.2-8.4c0.1-0.6,0.1-1.1,0-1.7c-0.2-1.6-1.2-2.5-2.9-2.4
	c-2.6,0.1-4,1.4-4.6,4.2c-0.4,2.4-0.7,4.8-1,7.1c-0.4,2.6-0.8,5.3-1.2,8c-2.6,1.1-5.1,0.4-7.6,0.8c-1-3.1,0.5-5.6,0.5-8.2
	c0.1-2.8,0.6-5.6,1-8.4c0.4-2.6,0.8-5.3,1.2-7.9c2.4-1.1,4.7-1.2,7.1-1.1c0.4,0.7,0.7,1.3,1,1.9c0.3,0,0.6,0.1,0.8-0.1
	c1.9-1.5,4-2.5,6.5-2.8C1927.4,2458.7,1928.1,2458.9,1930.8,2462.5z"/>
<path class="st1" d="M1531.9,2349.4c-4.9-0.1-9.3,0.9-14.1,0.7c-0.5-4.1,0.8-7.9,1-11.8c0.2-3.8,1-7.5,1.5-11.3
	c0.5-3.9,1.1-7.8,1.6-11.7c0.4-3.8,0.9-7.5,1.5-11.1c3.8-1.2,10.8-1.7,14.3-1.2c0.1,0.1,0.2,0.2,0.3,0.3c0.1,0.1,0.1,0.3,0.1,0.4
	c0,0.6,0.1,1.1,0,1.7C1536,2319.8,1534,2334.3,1531.9,2349.4z"/>
<path class="st1" d="M1645.6,2471c-1.2,2.6-1.2,2.6-1.1,5.5c4.1,0.7,8.3-0.5,12.8,0c-0.1,2.2-0.2,4.3-1.1,6.4
	c-4.1,1-8.4,0.1-12.6,0.9c-0.6,2.1-1.3,4-0.9,6.4c4.9,0.3,9.6-0.4,14.6-0.3c0.6,2.4-0.4,4.5-0.6,6.9c-1.6,0.2-3.1,0.4-4.6,0.5
	c-5.6,0.4-11.3,0.7-16.9,1c-0.8,0-1.6-0.2-2.6-0.4c1.7-11.3,3.3-22.5,4.9-33.6c2.8-1,5.5-0.6,8.2-0.8c2.7-0.2,5.4-0.3,8.1-0.4
	c2.7-0.1,5.3-0.4,8.2-0.2c0.4,2.6,0,4.9-0.3,7.4c-1,0.1-1.8,0.3-2.6,0.3c-3.4,0.1-6.8,0-10.2,0.1
	C1647.7,2470.8,1646.6,2471,1645.6,2471z"/>
<path class="st1" d="M1749.8,2490.4c-0.5,1.1-1,1.9-1.5,3c-2.3,0.4-4.6,0.6-6.9,0c-0.2-4.4,2.9-28.6,4.4-34.2c2.3-1,4.7-0.9,7.4-0.6
	c0.5,3.5-1.1,6.7-0.6,10.4c0.8-0.3,1.5-0.5,2-0.8c1.4-1.1,3-1.6,4.7-1.5c4.1,0.1,6.3,1.5,7.7,5.4c0.8,2.3,1.3,4.6,0.7,7
	c-0.4,1.8-0.7,3.6-1.3,5.3c-0.4,1.3-1.1,2.6-1.9,3.8c-1.7,2.5-3.9,4.5-7.1,4.9C1754.5,2493.4,1751.9,2492.9,1749.8,2490.4z
	 M1750.3,2482.3c0,0.7,0,1,0,1.3c0,1.7,0.5,3,2.2,3.7c1.6,0.6,3.5,0.2,4.5-1.3c2.1-3.3,3.2-6.9,2.2-10.8c-0.5-1.9-1.8-2.7-3.8-2.5
	c-1.4,0.1-2.3,0.9-3,2C1750.9,2477.1,1750.6,2479.9,1750.3,2482.3z"/>
<path class="st1" d="M1951.6,2465.5c0.5-3.7,2.4-5.5,5.1-6.7c4-1.8,8.2-1.9,12.4-0.9c3.5,0.9,5.1,3.3,4.9,6.9
	c-0.1,1.8-0.4,3.6-0.6,5.5c-0.5,4-1,8.1-1.5,12.2c-2.9,0.1-5.7,1.3-8-1.2c-1.6,0.8-3.2,1.8-4.9,2.4c-1.4,0.5-3,0.7-4.5,0.7
	c-4.8-0.2-7.3-3.9-5.9-8.5c1-3.4,3.2-5.7,6.5-6.7c2.3-0.7,4.7-1,7-1.3c1.1-0.2,2.2-0.2,3.4-0.3c0.7-1.5,0.8-2.8-0.5-3.9
	c-1.3-1.1-3.9-1.1-5,0.3C1957.7,2466.8,1954.9,2466.1,1951.6,2465.5z M1965.1,2471.8c-2.7,0-4.9,0.4-6.9,1.6
	c-1.2,0.7-1.8,2.2-1.4,3.2c0.4,1.1,1.7,2.1,3,2c1.6,0,3-0.7,4.1-1.9C1965.1,2475.5,1965.6,2474,1965.1,2471.8z"/>
<path class="st1" d="M1829.4,2463.5c2.6,0,4.5,0,6.7,0c0.3,0.6,0.7,1.3,1.2,2.2c0.5-0.3,1-0.5,1.4-0.9c2-1.9,4.5-2.2,7.1-2.2
	c4.2,0.1,6.3,2.4,6.2,6.9c-0.1,1.5-0.4,3.1-0.6,4.6c-0.7,4.4-1.3,8.9-2,13.4c-2.5,0.8-5,0.9-7.7,0.7c-0.1-1-0.2-1.8-0.1-2.6
	c0.4-2.9,0.9-5.8,1.3-8.8c0.2-2,0.3-3.9,0.3-5.9c0-1.5-1.1-2.2-2.6-2c-2.2,0.3-3.7,1.5-4.2,3.6c-0.7,3.1-1.2,6.4-1.8,9.5
	c-0.4,2.2-0.7,4.4-1,6.6c-2.5,1.2-4.9,0.8-7.2,0.7c-0.7-1.6-0.3-3,0-4.3C1827.2,2478,1827.6,2470.8,1829.4,2463.5z"/>
<path class="st1" d="M1823,2479.1c-5.8,0.4-11.3,0-16.9,1.2c0.3,1.2,0.3,2.2,0.7,3.1c0.8,1.7,2.4,2.4,4.2,1.9c0.8-0.2,1.7-0.5,2.3-1
	c2.6-2.1,5.4-2,8.7-1.2c-0.3,0.8-0.4,1.5-0.7,2c-1.7,2.6-4,4.3-6.9,5.3c-2.8,0.9-5.6,1-8.4,0.7c-4.1-0.4-7.7-3.8-7.9-8.2
	c-0.4-7.7,2.2-14.5,10.2-17.7c3-1.2,6.1-1.3,9.1-0.3c3.4,1.1,5.4,3.4,5.8,7.1C1823.6,2474.2,1823.4,2476.4,1823,2479.1z
	 M1815.6,2474.8c-0.1-3-0.2-4.1-1-4.3c-1.3-0.3-2.8-0.6-4.1-0.3c-2,0.6-2.9,2.3-3.1,4.6C1810.2,2475.6,1812.7,2475.1,1815.6,2474.8z
	"/>
<path class="st1" d="M1792.7,2491c-2.5,0-4.4,0-6.4,0c-0.4-0.8-0.8-1.5-1.2-2.2c-0.4,0.1-0.8,0-0.9,0.2c-2.5,2.8-5.8,3.2-9.3,2.9
	c-2.7-0.2-4-1.5-4.5-4.2c-0.1-0.6-0.2-1.1-0.1-1.7c0.8-6.3,1.7-12.5,2.5-18.7c2.9-1,3.7-1.1,7.7-0.7c0.5,1.2,0.1,2.4,0,3.6
	c-0.4,2.9-0.9,5.9-1.3,8.8c-0.2,1.4-0.2,2.8-0.2,4.2c0.1,2,1.6,3,3.5,2.5c1.8-0.5,3-1.6,3.3-3.5c0.7-3.9,1.3-7.8,1.9-11.7
	c0.2-1.5,0.4-3.1,0.7-4.6c2.5-0.7,4.8-0.7,7.4-0.6c0.1,1.3,0.3,2.4,0.1,3.5C1795,2476.3,1794.1,2483.5,1792.7,2491z"/>
<path class="st1" d="M1724.7,2494.1c-4.9,0.8-5.2,0.8-7-1.1c-0.3,0-0.6,0-0.8,0.1c-2.6,2.5-5.8,2.8-9.1,2.4c-4.8-0.5-7-4.6-5-8.9
	c1.2-2.6,3.3-4.2,6-5c2.1-0.7,4.4-1.1,6.6-1.5c0.8-0.2,1.7-0.2,2.5-0.3c0.9-0.2,1.6-0.6,1.8-1.6c0.3-1.1-0.1-2-1-2.6
	c-1.3-0.9-2.7-0.8-4-0.1c-0.6,0.3-1.3,0.7-1.7,1.3c-1.4,1.7-3.1,1.8-5,1.3c-0.5-0.1-1-0.3-1.5-0.5c-0.6-1.3-0.2-2.4,0.5-3.2
	c0.9-1,1.9-2.1,3.1-2.8c4.2-2.3,8.6-2.6,13.1-0.8c2.8,1.1,4.4,3.8,4,6.8c-0.5,4.8-1.2,9.5-1.8,14.3
	C1725.2,2492.6,1724.9,2493.4,1724.7,2494.1z M1718.1,2484.8c-1.6-0.4-3-0.5-4.3-0.1c-1,0.3-2,1.1-2.7,1.8c-0.8,0.8-0.7,2.1,0,3.1
	c0.6,0.9,1.6,1.4,2.6,1.1c1.2-0.4,2.4-1,3.3-1.7C1718.1,2488.1,1718.4,2486.7,1718.1,2484.8z"/>
<path class="st1" d="M1866.7,2480.1c1.9-1.1,3.8-1.2,5.6-1.3c0.9-0.1,1.5,0.4,2.1,1.1c1.6,1.9,3.9,2,6,0.7c1.2-0.7,1.1-2.5-0.1-3.1
	c-0.7-0.4-1.6-0.5-2.4-0.7c-2-0.6-4.1-0.9-6.1-1.7c-2.8-1.1-3.7-3.7-3-6.6c0.6-2.3,2-4.1,4-5.2c3.6-2,7.4-2.7,11.4-1.8
	c2.8,0.7,4.8,2.2,5.9,4.9c-2.4,1.9-2.4,1.9-6.7,1.9c-0.9-0.8-1.8-1.6-2.9-2.6c-1.1,0.4-2.2,0.7-3.1,1.3c-0.5,0.3-1.1,1.1-1,1.7
	c0,0.5,0.8,1.2,1.3,1.4c1,0.4,2.2,0.5,3.3,0.7c1.1,0.2,2.2,0.3,3.3,0.7c5.4,1.8,6.8,7.1,3,11.4c-0.7,0.8-1.6,1.6-2.6,2.1
	c-4.5,2.2-9.1,2.8-13.9,1.2C1868.2,2485.2,1866.8,2483.3,1866.7,2480.1z"/>
<path class="st1" d="M1661.7,2490.1c1.5-0.1,2.8-0.2,4.2-0.3c1.3-0.1,2.3,0.2,3.4,1.3c1.9,1.9,4.7,1.6,6.2-0.4
	c0.8-1,0.4-2.4-0.7-2.8c-2.2-0.7-4.3-1.2-6.5-1.8c-0.8-0.2-1.6-0.5-2.4-0.9c-2.4-1.4-3.2-3.9-2.3-6.6c0.8-2.3,2.3-3.9,4.3-5
	c3.6-2,7.6-2.2,11.5-1.2c2.6,0.7,4.5,2.3,4.4,5.3c-1,1-2.2,1.4-3.5,1.5c-1.4,0.2-2.6,0.1-3.8-1.2c-1.7-1.8-3.6-1.6-5.5,0.1
	c-0.7,0.6-0.7,1.8,0.2,2.1c1.2,0.5,2.4,0.7,3.6,1.1c2,0.6,4.1,0.9,6.1,1.7c2.1,0.8,3,2.5,3,4.7c0,3.4-1.5,6-4.4,7.7
	c-3.3,1.8-6.8,2.7-10.6,2.5c-2.7-0.1-4.9-1.2-6.6-3.3C1661.5,2493.4,1661,2492.1,1661.7,2490.1z"/>
<path class="st1" d="M1695.8,2489.2c1.3,0.7,2.2,1.1,3,1.5c0.6,0.9,0.5,2.1-0.7,5.3c-2.3,0.6-4.7,0.5-7.1,0.3
	c-1.8-0.2-2.9-1.1-3.2-2.8c-0.2-1.5-0.1-3.1,0.1-4.6c0.5-3.9,1.1-7.8,1.7-11.8c-0.9-0.5-1.8-0.9-2.9-1.5c0.2-1.2,0.4-2.6,0.6-4
	c1.2-0.5,2.2-0.8,3.2-1.2c0.5-2.1,0.9-4,1.4-5.9c2.4-1.1,4.7-1.1,6.9-0.6c1.1,2.3-0.8,4.3,0,6.5c1.2,0.2,2.4,0.3,3.5,0.5
	c0.3,2.6,0.3,2.6-0.9,5c-1,0.1-2.1,0.2-3.1,0.2c-0.2,0.3-0.5,0.5-0.6,0.7C1697.2,2480.8,1696.5,2484.9,1695.8,2489.2z"/>
<path class="st1" d="M1899.4,2485.9c-1.7,0-3.3,0.1-4.8,0.1c-0.8,0-1.6-0.2-2.7-0.3c0.5-8.2,2.6-15.9,3.2-23.8
	c2.7-1,5.1-1.2,7.7-0.7c0.1,0.6,0.3,1,0.2,1.4c-0.9,7.1-1.8,14.2-2.8,21.3C1900.1,2484.4,1899.8,2484.9,1899.4,2485.9z"/>
<path class="st1" d="M1857.4,2462.9c1.7-0.1,3.1-0.2,4.5-0.2c0.8,0,1.7,0.1,2.3,0.2c1.1,1.1,0.7,2.3,0.5,3.4
	c-0.8,6.3-1.6,12.5-2.5,18.8c-0.2,1.8-0.9,2.5-2.7,2.6c-1.7,0.1-3.3,0.3-5.2-0.3c-0.1-1-0.3-1.9-0.2-2.8c0.9-6.6,1.8-13.1,2.7-19.6
	C1856.9,2464.3,1857.1,2463.8,1857.4,2462.9z"/>
<path class="st1" d="M1982.4,2447c2.9-0.9,5.7-0.7,8.8-0.8c0,0.8,0.1,1.5-0.1,2.1c-2.4,6.7-2.8,14.1-6.4,20.5c-1.6,0-3,0-4.5,0
	c-0.2-0.7-0.5-1.2-0.4-1.7C1980.6,2460.5,1981.5,2453.8,1982.4,2447z"/>
<path class="st1" d="M1999,2468c-1.9,0.3-3.4,0.6-4.8,0.2c-0.5-4.2,1.3-16.9,2.9-21.1c3.4-1.1,4.4-1.2,8.9-0.7
	c-0.6,3.7-2.2,7.2-3.3,10.7C2001.6,2460.6,2000.3,2464.2,1999,2468z"/>
<path class="st1" d="M1985.9,2473.1c-0.2,3.2-0.6,6.2-1.7,9.2c-2.4,0.6-4.7,0.6-7.2,0.1c-0.4-3,0.3-5.7,0.9-8.4
	c0.1-0.4,0.7-1,1.2-1.1C1981.3,2472.5,1983.5,2472.1,1985.9,2473.1z"/>
<path class="st1" d="M1998.7,2472.5c0.6,3.4-0.6,6.1-0.9,9.1c-2.5,0.6-4.8,0.8-7.3-0.1c0-2.9,0.2-5.7,1.1-8.3
	C1993.9,2472.2,1996.1,2472.5,1998.7,2472.5z"/>
<path class="st1" d="M1903,2457.3c-2.2,0.4-4.2,0.8-6.4-0.1c-0.7-2.1,0.1-4,1.4-5.3c1.9-1.9,4.5-1.9,7-1.6
	C1905.2,2453.1,1905.2,2453.1,1903,2457.3z"/>
<path class="st1" d="M1858.4,2459.3c0.6-1.7,1-3.3,1.6-4.8c0.5-1.3,1.5-2,2.8-2.3c1.8-0.3,3.6-0.6,5.2-0.3c0.2,0.5,0.5,0.7,0.4,0.9
	c-0.7,2.5-2.7,4.2-4.2,6.1c-0.3,0.4-1,0.6-1.5,0.6C1861.4,2459.7,1860,2459.9,1858.4,2459.3z"/>
<path class="st1" d="M1722.1,2466.4c-2.3,0-4.1,0-5.9,0c1-6.1,4.5-8.5,10.1-7c0,0.3,0.2,0.6,0.1,0.8
	C1725,2462.2,1723.6,2464.3,1722.1,2466.4z"/>
<path class="st1" d="M1730.3,2350c-25.5,0-46.1,20.7-46.1,46.1c0,25.5,20.7,46.1,46.1,46.1s46.1-20.7,46.1-46.1
	C1776.4,2370.6,1755.7,2350,1730.3,2350z M1718.8,2419.2l0-46.1l38.4,23L1718.8,2419.2z"/>
<path class="st1" d="M2086.7,2287.7l-17.2,2.9l22.8,134.5c-30-0.8-57.3,26.6-53.2,50.8c3.4,20.3,21.4,28.1,38.8,25.1
	c20.8-3.5,41-22.2,36-52.3l-18.6-109.5c29,14.7,53,19.6,53.6,52.7c9.8-16.9,12.6-27,10.8-37.6
	C2153.3,2316.1,2091.1,2313.7,2086.7,2287.7z"/>
<g>
	<path class="st1" d="M28.7,362.3c-0.1-2.4-0.4-4.1-0.2-5.7c2-16.3,4.2-32.7,6.1-49c1.9-16.1,3.6-32.2,5.5-48.3
		c1.1-9.2,2.4-18.3,3.6-27.4c1-7.5,1.9-15,3-22.4c0.6-3.9,1.7-5,5.4-5.2c14-0.8,27.9-1.4,41.9-2.1c1.3-0.1,2.7,0.4,4.5,0.7
		c-0.3,9.7-2.5,19-3.4,28.4c-0.9,9.7-2.2,19.4-3.4,29.1c-1.2,9.4-2.6,18.8-3.8,28.2c-1.2,9.4-2.3,18.8-3.5,28.5
		c4.3,1.4,8.4,0.5,12.5,0.2c12.6-0.9,25.1-1.8,37.7-2.7c2.2-0.2,4.4,0,7.1,0c-0.3,11.8-3,22.9-3.2,34.3c2.2-0.2,2.1-2,2.6-3.1
		c13.5-32.5,27-65.1,40.5-97.5c6.4-15.2,12.9-30.3,19.6-45.4c4.3-9.6,3.6-8.6,13.6-9.1c15.4-0.8,30.7-1.7,46-2.8
		c7.3-0.5,8.8-0.1,9.4,7.7c0.7,8.6,2.6,17.1,4,25.7c3.6,21.5,7.2,43,10.8,64.5c3.2,18.7,6.5,37.4,9.7,56.1c0.2,1,0,2.1,0,3.4
		c-1.3,0.4-2.3,1-3.3,1.1c-10,1.3-39,2.5-45.5,1.9c-2-3.6-1.6-8-2.5-12c-0.9-4,0-8.4-2.3-12.5c-5.2-0.9-10.5,0.5-15.7,0.7
		c-5.3,0.2-10.6,0.4-15.9,0.7c-5.3,0.3-10.6,0-15.9,1.5c-4.5,7.9-6.1,16.8-9.9,25.2c-50,2.6-99.6,5.2-149.3,7.8
		C32.8,362.8,31.2,362.5,28.7,362.3z M228.9,235.7c-1.7,0.2-2.1,1.5-2.5,2.9c-1.4,4.5-2.8,9.1-4.3,13.5c-4,11.3-8.1,22.6-12.1,33.9
		c-0.7,2-0.9,4.1-1.4,6.2c10.4,1.4,21.5,0.6,27.5-2C236.2,284.1,232.6,256.4,228.9,235.7z"/>
	<path class="st1" d="M397.3,342.8c-6.3,0.6-11.9,1.2-17.4,1.7c-6.7,0.6-13.4,1-20.1,1.5c-4.6,0.3-5.6-0.9-5-5.2
		c2-16.4,4-32.7,6.1-49.1c1.3-10.3,2.6-20.5,3.9-30.8c1.4-11.1,2.9-22.2,4.3-33.2c1.7-13,3.3-26,5-39.1c0.2-1.3,0.6-2.7,1-4.3
		c1.7-0.4,3.3-1.1,4.8-1.2c20.1-1.3,40.1-2.8,60.8-3c0.7,1.8,1.8,3.5,2,5.3c1.4,11.9,2.6,23.9,3.8,35.8c1.3,13.9,2.5,27.8,3.9,41.8
		c0.3,2.6,0.3,5.4,2,9c1.2-2.5,2-3.8,2.5-5.3c8.6-26,17.1-52,25.6-78c0.3-1.1,0.8-2.1,1.1-3.2c2.9-8.1,2.9-8,11.2-8.4
		c14-0.7,27.9-1.6,41.9-2.5c3.1-0.2,6.1-0.5,9.2-0.6c5-0.1,5.8,0.8,5.4,5.9c-0.9,12-3,23.8-5.5,35.6c-1.6,7.4-2.9,14.8-3.6,22.3
		c-1.5,15.3-2.5,30.6-1.9,46.1c0.3,6.1-0.7,12.3-1.4,18.4c-1.2,10.5-2.5,21-3.9,31.8c-1.8,0.6-3.4,1.3-4.9,1.4
		c-10.3,0.8-20.7,1.4-31,2.1c-1.1,0.1-2.2,0-3.3-0.1c-2.3-0.3-3.5-1.7-3.3-4c0.6-5.8,1.4-11.6,2.1-17.5c1.5-13.3,2.8-26.7,4.3-40
		c0.8-7.5,1.8-15,2.4-22.5c0.6-6.1,0.8-12.2,1.3-19.1c-3.1,3.4-3,3.4-4.9,9.6c-1.1,3.7-2.4,7.4-3.7,11.1c-1.2,3.4-2.5,6.8-3.7,10.3
		c-1.3,3.7-2.6,7.4-3.9,11.1c-1.2,3.4-2.4,6.8-3.7,10.3c-1.2,3.4-2.5,6.8-3.8,10.2c-1.3,3.7-2.6,7.4-3.9,11.1
		c-1.2,3.4-2.4,6.9-3.6,10.3c-1.3,3.7-2.7,7.3-4.1,11c-1.3,3.4-2.7,6.7-4.1,10.4c-12.5,0.3-24.6,2.1-37.5,1.7
		c-2.5-16.5-4.1-32.9-6.2-49.1c-2-15.9-3.6-31.8-6.4-47.7c-2.6,10.6-3.6,21.3-5.1,31.9c-1.5,11.1-2.9,22.2-4.4,33.3
		C400.2,320.4,398.8,331.2,397.3,342.8z"/>
	<path class="st1" d="M1139.1,148c9.6-2.3,42.4-4,51.3-2.7c0.2,0.2,0.4,0.4,0.5,0.6c0.1,0.2,0.2,0.6,0.2,0.8
		c-7.6,52.8-15.2,105.6-22.8,158.7c-2.3,0.4-4.2,0.9-6.1,1c-15.6,0.8-31.3,1.6-46.9,2.4c-1.4,0.1-2.8,0.1-4.2,0.1
		c-1.9,0-3.2-1.1-4-2.6c-0.9-1.7-1.6-3.6-2.3-5.4c-9.5-25.7-19-51.4-28.5-77.1c-0.6-1.5-1.3-3-2.4-5.2c-1.7,2.5-1.1,4.7-1.5,6.6
		c-0.4,2.2-0.7,4.4-1,6.6c-0.3,2.2-0.4,4.5-0.7,6.7c-0.3,2.2-0.8,4.4-1,6.6c-0.3,2.2-0.3,4.5-0.5,6.7c-0.2,2.2-0.6,4.4-0.9,6.6
		c-0.3,2.2-0.5,4.5-0.7,6.7c-0.3,2.2-0.6,4.4-0.8,6.7c-0.3,2.2-0.5,4.4-0.7,6.7c-0.2,2.2-0.5,4.4-0.7,6.7c-0.3,2.2-0.6,4.4-0.9,6.7
		c-0.2,2.2-0.3,4.5-0.6,6.7c-0.3,2.2-0.7,4.4-1,6.6c-0.3,2.2-0.6,4.3-1,6.9c-8,1.6-15.8,0.7-23.5,1.4c-7.5,0.7-15,1.4-22.6,0.8
		c-1.7-2.6-0.3-5.1-0.2-7.5c0-2.2,0.3-4.5,0.6-6.7c2.1-16.1,4.1-32.2,6.3-48.2c2-15.2,4.1-30.5,6.1-45.7c1.4-11.1,2.7-22.2,4-33.3
		c0.7-5.8,1.3-11.7,2.1-17.5c0.5-3.3,1.7-4.3,4.9-4.7c0.8-0.1,1.7-0.1,2.5-0.2c17-0.8,34.1-1.7,51.1-2.5c1.6-0.1,3.3,0.2,5.2,0.3
		c4.2,9.6,6.9,19.6,10.3,29.3c3.6,10,6.8,20.1,10.2,30.2c3.3,9.7,5.8,19.6,9.7,29.2c2.6-9.8,2.7-19.7,3.7-29.6
		c0.9-9.7,1.9-19.5,3.1-29.2C1136.3,168.3,1137.7,158.4,1139.1,148z"/>
	<path class="st1" d="M845.4,247.8c3,1.3,5.3,2.2,7.4,3.2c7.6,3.5,11.6,9.5,11.8,17.8c0.2,5.6,0.2,11.2-0.3,16.8
		c-1.1,11.7-2.5,23.3-3.9,35.4c-1,0.4-2.3,1.2-3.5,1.3c-14.8,0.8-29.6,1.6-44.4,2.3c-0.8,0-1.6-0.4-3-0.7c0-1.5-0.3-3.1-0.1-4.7
		c1.4-10.2,2.9-20.5,4.3-30.7c0.5-3.9,0.8-7.8-0.5-11.6c-1.1-3.2-3.2-5.2-6.5-5.9c-0.5-0.1-1.1-0.2-1.7-0.3
		c-5.7-0.9-26.1-0.2-33.9,1.2c-2.7,17.4-3.7,35.2-6.4,53.1c-5.3,2.2-11,1.3-16.5,2c-5.3,0.6-10.6,0.8-15.9,1.1
		c-5.5,0.4-11.1,0.8-17,1.2c-0.3-2-0.8-3.6-0.8-5.1c0.1-9,2.3-17.7,4.3-26.4c2.9-12.5,5.7-25.1,8.1-37.7c1-5.4,0.8-11.1,1.1-16.7
		c0.1-2.2-0.1-4.5-0.3-6.7c-1.4-12.3-0.2-24.6,1.1-36.8c1-9.4,2.2-18.9,3.3-28.3c0.1-0.8,0.5-1.6,0.6-2.2c1.7-2.2,4.1-1.9,6.3-2.1
		c8.1-0.6,16.2-1.1,24.3-1.6c20.1-1.1,40.2-2.2,60.3-3c6.7-0.3,13.4,0.2,20.1,1c4.7,0.6,9.3,1.9,13.8,3.5
		c12.3,4.4,18.9,13.7,20.2,26.4c0.6,6,0.1,12.3-1,18.3c-2.9,16.4-12.3,27.8-27.9,33.9C847.8,246.1,847,246.8,845.4,247.8z
		 M780.1,202c-1.5,10.8-2.9,20.9-4.4,31.5c2.3,0.3,4.1,0.7,6,0.6c5.6-0.1,11.2-0.4,16.7-0.8c3.3-0.2,6.7-0.6,9.9-1.3
		c5.1-1.1,9.6-3.4,11.7-8.5c1.6-4.1,2.6-8.5,2.4-13.1c-0.2-4.4-2.4-7.4-6.6-8.7c-2.6-0.8-5.5-1.2-8.2-1.3c-7,0-13.9,0.2-20.9,0.5
		C784.8,201.1,782.9,201.5,780.1,202z"/>
	<path class="st1" d="M1006.6,274.4c-1.7,13.7-3.3,26.9-4.9,39.8c-2.6,2.1-5.2,1.7-7.6,1.8c-19,0.8-38,1.5-57,2.4
		c-15.6,0.7-31.3,1.8-46.9,2.6c-4.9,0.3-9.9,1-15.4-0.2c0-2.5-0.3-4.7,0-6.9c1.9-13.8,4.1-27.6,6-41.4c1.3-9.4,2.5-18.8,3.7-28.2
		c1.3-9.7,2.6-19.4,3.9-29c1.5-11.3,3.1-22.7,4.6-34c0.7-5.5,1.2-11.1,1.9-16.6c0.5-4.2,1.9-5.5,6.5-6.1c1.7-0.2,3.3-0.4,5-0.5
		c17.3-1,34.6-2,51.9-3c13.7-0.8,27.4-1.6,41-2.4c5.9-0.3,11.7-0.6,17.6-0.8c1.6-0.1,3.2,0.3,4.8,0.4c1.3,3.4,0.7,6.5,0.2,9.5
		c-1.7,11-2.1,22.2-4.7,33.4c-12.7,0.4-25,0.3-37.2,1.3c-11.9,1-24,0.1-35.9,2.5c-2.2,6.3-2.7,12.7-3.6,19.3
		c6,1.7,11.7-0.8,17.5-0.7c6.1,0.1,12.3-0.7,18.4-1c5.9-0.3,11.7-0.7,17.6-0.7c5.8,0,11.5-1.4,17.2-0.7c1,6.7-0.5,22.7-3.3,37
		c-1.6,2.1-3.9,1.8-6.1,1.9c-15.1,0.7-30.2,1.3-45.2,2.1c-6.9,0.4-13.8,1.1-21.1,1.7c-1.3,6.6-2.6,12.8-2.1,19.5
		c4.5,1.1,8.7,0.5,12.8,0.2c14.8-0.9,29.6-2,44.3-2.9c3.6-0.2,7.3-0.5,10.9-0.6C1003.1,273.7,1004.6,274.1,1006.6,274.4z"/>
	<path class="st1" d="M1307.5,138.6c0.7,2.8,1.6,5.1,2,7.6c4.9,27.8,9.7,55.6,14.5,83.4c3.5,20.1,7,40.2,10.3,60.3
		c0.5,2.7,0.4,5.5,0.6,8.5c-5.7,2.2-11.3,1.3-16.8,1.9c-5.5,0.6-11.2,0.8-16.7,1.1c-5.5,0.3-11.1,0.6-16.4,0.9
		c-3.1-4.1-2-8.6-2.8-12.6c-0.9-4-1.3-8.2-2-12.6c-5.7-1.3-10.9,0.4-16.1,0.4c-5.3,0-10.6,0.2-15.9,0.5c-5.3,0.3-10.6,0.8-15.8,1.1
		c-4.9,7.3-6.4,15.8-9.8,23.1c-6.4,1.8-41,4-49.6,3.2c-1.6-2.5,0.2-4.8,1.1-6.9c4.6-10.8,9.4-21.5,14-32.3
		c12-28,23.8-56.1,35.8-84.1c4.9-11.6,10.2-23,15-34.6c1.7-4.2,4.3-5.8,8.9-6c17.6-0.8,35.2-1.9,52.8-2.9
		C1302.3,138.5,1304.3,138.6,1307.5,138.6z M1265.6,183.9c-2,6.3-4,12.6-6,18.8c-2.2,6.6-4.7,13.1-6.5,19.8
		c-1.7,6.3-4.7,12.3-5.7,19.6c5-0.4,9.4-0.6,13.8-1c4.3-0.4,8.9,0.7,13.4-1.7C1272.9,220.8,1269.3,202.5,1265.6,183.9z"/>
	<path class="st1" d="M112.4,74.3c1.9-0.5,3-0.9,4-1c10.9-0.7,21.8-1.4,32.7-2c0.8,0,1.6,0.3,2.7,0.6c2.9,13.3,1.9,27.1,4.7,41.3
		c1-1.2,1.9-1.9,2.2-2.8c3.5-11.5,6.9-23,10.3-34.5c0.4-1.3,0.8-2.7,1.3-4c0.6-1.7,1.9-2.7,3.7-3.1c0.8-0.1,1.7-0.3,2.5-0.3
		c10.6-0.7,21.2-1.5,31.8-2.2c0.8-0.1,1.6,0.2,2.2,0.3c0.4,0.3,0.6,0.5,0.8,0.7c0.2,0.2,0.3,0.5,0.3,0.8
		c-0.6,7.8-9.6,84.2-11.4,90.1c-7.7,1.9-15.6,2.2-24.1,1.7c-1-6.7,0.2-13,1-19.3c0.8-6.1,1.4-12.2,2-18.3c0.6-6.4,1.1-12.7,0.7-19.4
		c-0.7,1.3-1.6,2.6-2.1,4c-4.5,15.3-9,30.6-13.4,45.9c-0.4,1.3-0.9,2.7-1.2,4c-0.8,3.1-2.7,4.8-5.9,4.8c-5.2,0-10.5,1.1-15.7,0.3
		c-3.4-9.6-2.2-19.3-3.5-28.6c-1.3-9.3-2-18.7-3.4-28.1c-2.7,9.5-2.8,19.2-4.2,28.8c-1.3,9.4-2.2,18.8-3.3,28.5
		c-8.4,3-16.7,1.8-24.7,2.7c-1.2-8.2,0.3-22.1,3.7-45.8C108.2,104.6,109.1,89.5,112.4,74.3z"/>
	<path class="st1" d="M430.4,50.7c15.1-1,29.5-2.1,44-3c4.7-0.3,9.5-0.1,14.1,1.4c7.2,2.3,11.2,7.2,11.5,14.7
		c0.2,3.6,0.2,7.3-0.3,10.9c-1,7.6-4.3,13.8-11.5,17.4c-1.7,0.9-3.4,1.8-5.8,3.1c1.5,1.2,2.7,2.2,3.9,3c3.5,2.4,5.3,5.8,5.2,10
		c0,4.7-0.1,9.5-0.6,14.2c-0.6,5.5-2,11,0.4,16.4c-7.4,1.7-23.5,2.7-30,1.9c-0.9-2.8,0-5.9,0.1-8.8c0-2.8,0.4-5.6,0.6-8.3
		c0.2-2.8,0.8-5.6,0.8-8.3c-0.1-6.3-2.4-8.2-9.1-7.5c-0.5,0.1-1,0.4-2.1,1c-3.2,10.8-2.2,22.8-5.5,34.3c-9.4,0.6-18.4,1.2-27.7,1.8
		c-1.3-3.2-0.8-6-0.4-8.7c3.1-22.4,6.3-44.7,9.3-67.1C428.2,63.1,428.4,57.2,430.4,50.7z M456.9,67.9c-2.2,3.4-1.9,6.2-2.3,9
		c-0.4,3-0.9,6.1-1.2,9.1c-0.2,1.8,1.3,3.3,3.1,3.1c1.9-0.2,3.8-0.6,5.7-1c4.3-1,6.6-4,7.5-8.1c0.4-1.9,0.5-3.9,0.4-5.8
		c-0.2-3.5-2.2-5.8-5.7-6.2C462,67.6,459.5,67.9,456.9,67.9z"/>
	<path class="st1" d="M415.2,83.1c-1.5,10.6-2.8,20.8-4.3,31.1c-0.4,2.8-1.1,5.5-1.9,8.2c-4.4,14.8-14.2,23.5-29.6,26.2
		c-6.1,1.1-12.2,1.7-18.4,1.3c-2.8-0.2-5.6-0.6-8.3-1.2c-10.6-2.7-16.6-9.9-17.3-21c-0.4-6.7,0-13.4,1.3-20c1.7-8.8,3-17.6,5.1-26.3
		c3.3-13.3,11.8-21.9,25.1-25.5c9.5-2.6,19.2-4,29-1.8c2.7,0.6,5.4,1.4,7.9,2.6c5.9,2.9,9.6,7.6,10.4,14.3
		C414.9,75,415,79.2,415.2,83.1z M365.4,119.6c0,1.8,0,3.2,0,4.5c0.1,2.6,0.4,5.1,3,6.4c2.9,1.4,5.4-0.1,7.7-1.7
		c1.1-0.8,2-2,2.5-3.3c0.9-2,1.6-4.2,1.9-6.4c1.7-11.5,3.4-23.1,5-34.7c0.3-2.5,0.4-5,0.2-7.5c-0.4-5.1-4.5-7.3-8.9-4.6
		c-1.8,1.1-3.5,2.9-4.3,4.8c-1.5,3.9-2.5,7.9-3.3,12c-0.8,3.8-1.1,7.7-1.6,11.6C366.9,107.3,366.1,113.6,365.4,119.6z"/>
	<path class="st1" d="M565.1,43c0.4,0.8,0.9,1.5,1.1,2.3c0.4,1.6,0.7,3.3,0.9,4.9c3.3,27.4,7,54.7,9.8,82.1
		c-1.1,0.7-1.7,1.3-2.4,1.5c-2.8,0.4-5.6,0.9-8.3,0.8c-5.8-0.2-11.5,2.3-17.5,0.9c-2.2-5.4-0.1-11.2-2.4-16.9
		c-5.9-0.6-11.6,0.9-17.3,0.8c-3.7,5.7-3.6,12.1-6.3,17.6c-5.3,1.3-18.5,2.1-27,1.5c0.2-1.3,0.1-2.6,0.5-3.7
		c6.6-20.2,13.1-40.4,19.8-60.5c2.6-8,5.4-15.9,8-23.8c1.3-3.9,3.5-5.9,7.9-6.1c7.8-0.3,15.6-1.2,23.4-1.8
		C558.4,42.4,561.8,41.9,565.1,43z M545.6,98.9c-0.5-10.3-0.8-19.9-2.1-29.4c-1.9,0.2-2.2,1.4-2.4,2.4c-2.3,9-5.9,17.7-7.4,27.5
		C537.7,100,541.1,100,545.6,98.9z"/>
	<path class="st1" d="M281.7,122c0,3.7-0.1,6.4,0,9.2c0.1,2.8,1.8,4.8,4.5,5.2c3.2,0.5,6.1,0.1,8.7-1.9c5-3.9,4.6-10.9-0.7-14.1
		c-1.9-1.1-4.1-1.9-6.1-2.7c-4.4-1.8-8.9-3.3-13.3-5.2c-16.4-7.4-20.3-26-8.5-39.8c7-8.2,16.2-11.9,26.4-13
		c6.1-0.7,12.3-0.4,18.4-0.5c1.9,0,3.9,0.4,5.8,0.8c7.6,1.8,12.2,6.5,13.5,14.2c0.8,4.5,0.8,8.9-0.7,13.2
		c-5.7,2.4-17.7,3.1-25.7,1.4c-0.3-2.3-0.4-4.8-0.9-7.2c-0.6-2.8-2.8-4.2-5.6-4c-3.3,0.2-5.9,1.7-7.8,4.3c-2.4,3.2-1.7,7.4,1.8,9.4
		c2.4,1.4,5.1,2.3,7.6,3.4c5.9,2.6,12,4.8,17.5,7.9c10.2,5.8,12.6,12.3,10.7,23.8c-2.3,13.9-10.4,22.6-23.7,26.4
		c-10.9,3.1-22.2,3.3-33.3,1.6c-12.2-1.8-17.3-8.2-17.5-20.6c0-1.7,0-3.4,0.2-5c0.5-4.4,1.3-5.2,5.6-5.9
		C266.2,121.6,273.6,120.9,281.7,122z"/>
	<path class="st1" d="M45.3,79c8.3-1.9,48.4-4.4,55.6-3.6c-0.5,6.5,0.1,13.1-3,19.8c-3.5,0.3-7.1,0.6-10.7,0.9
		c-3.9,0.2-7.8,0.2-11.7,0.6c-3.4,0.3-4.4,1.3-5.2,4.5c-0.2,0.8-0.3,1.7-0.4,2.5c-0.3,1.9-0.6,3.8-1,6.3c1.5,0.2,2.8,0.5,4.1,0.5
		c7-0.4,13.9-0.8,20.9-1.3c0.5,0.9,1.2,1.7,1.1,2.3c-0.7,5.8-1.5,11.5-2.3,17.6c-8.6,1.8-17,0-25.3,1.8c-1.8,4.9-2.7,9.6-2.1,15.2
		c9.1,0.8,17.9-1.4,27.2-1c0.3,1.3,0.9,2.7,0.7,3.9c-0.5,5.3-1.2,10.5-1.8,15.3c-2.1,2.4-4.4,2.1-6.6,2.3c-11.2,0.7-22.3,1.3-33.5,2
		c-5,0.3-10,0.9-14.5,1.3c-2.5-1.7-1.9-3.8-1.7-5.7c2.5-20.8,5.1-41.6,7.7-62.3C43.7,94.3,44.5,86.8,45.3,79z"/>
	<path class="st1" d="M1030.1,380.3c2.2-1.8,3.8-3.2,5.6-4.6c5-3.8,10.7-4.7,16.7-3.7c5.7,1,7.9,3.3,8.3,8.8
		c0.3,3.9,0.3,7.9-0.1,11.7c-1,8.3-2.3,16.6-3.6,24.8c-0.2,1.3-0.8,2.6-1.3,4.1c-4.6,2-9.2,1.6-14.1,1.7c-1.3-3.5-0.7-6.6-0.3-9.6
		c0.6-5.5,1.6-11,2.4-16.6c0.3-2.2,0.6-4.5,0.5-6.7c-0.2-4.1-3.9-6.4-7.8-5c-3.1,1.2-5.1,3.5-5.8,6.7c-1.3,6-2.4,12-3.4,18.1
		c-0.7,4.1-1.1,8.3-1.7,12.6c-5,2.2-9.9,1.5-14.9,1.5c-0.8-4.9,0.1-9,0.7-13.1c0.7-5.5,1.6-11.1,2.3-16.6c0.1-1.1,0.2-2.2,0-3.3
		c-0.3-3.2-2.5-4.9-5.7-4.8c-5.1,0.3-8,2.7-9,8.2c-0.9,4.7-1.3,9.4-2,14.1c-0.8,5.2-1.6,10.4-2.4,15.7c-5.1,2.2-10.1,0.9-15,1.6
		c-1.9-6.1,0.9-11.1,1.1-16.3c0.2-5.6,1.2-11.1,1.9-16.6c0.7-5.2,1.5-10.4,2.3-15.7c4.7-2.2,9.4-2.3,14.1-2.2
		c0.8,1.4,1.4,2.6,2.1,3.8c0.5,0,1.2,0.1,1.5-0.2c3.8-3,8-5,12.9-5.5C1023.3,372.8,1024.7,373.3,1030.1,380.3z"/>
	<path class="st1" d="M241,156.6c-9.7-0.1-18.5,1.8-27.9,1.4c-1-8.2,1.5-15.7,1.9-23.4c0.4-7.5,1.9-14.9,2.9-22.4
		c1.1-7.7,2.3-15.5,3.1-23.2c0.8-7.5,1.8-14.9,2.9-22.1c7.6-2.4,21.4-3.4,28.3-2.3c0.2,0.2,0.4,0.4,0.5,0.6c0.1,0.2,0.2,0.5,0.2,0.8
		c0,1.1,0.1,2.2,0,3.3C249,98.1,245,126.8,241,156.6z"/>
	<path class="st1" d="M465.8,397.3c-2.4,5.2-2.4,5.2-2.3,11c8.2,1.4,16.5-1,25.3,0c-0.2,4.4-0.4,8.4-2.1,12.6
		c-8.2,2.1-16.7,0.1-25,1.7c-1.2,4.1-2.5,8-1.7,12.7c9.7,0.6,19.1-0.8,29-0.6c1.2,4.8-0.8,8.9-1.2,13.7c-3.2,0.4-6.2,0.9-9.2,1.1
		c-11.2,0.7-22.3,1.4-33.5,1.9c-1.6,0.1-3.2-0.5-5.2-0.8c3.3-22.4,6.5-44.5,9.7-66.5c5.6-2,11-1.3,16.2-1.6
		c5.3-0.4,10.6-0.6,15.9-0.8c5.2-0.1,10.5-0.8,16.2-0.4c0.9,5.1,0.1,9.6-0.5,14.7c-2,0.3-3.6,0.7-5.1,0.7
		c-6.7,0.1-13.4,0.1-20.1,0.2C470,396.9,467.8,397.2,465.8,397.3z"/>
	<path class="st1" d="M672,435.6c-1.1,2.1-1.9,3.8-2.9,5.9c-4.5,0.8-9.1,1.1-13.6,0c-0.4-8.6,5.8-56.6,8.7-67.7
		c4.5-2.1,9.3-1.7,14.7-1.3c0.9,6.9-2.2,13.3-1.1,20.6c1.6-0.7,2.9-0.9,3.9-1.6c2.8-2.1,5.9-3.1,9.3-3c8.1,0.1,12.4,3,15.2,10.6
		c1.7,4.5,2.5,9.1,1.3,13.9c-0.9,3.5-1.4,7.1-2.6,10.5c-0.9,2.6-2.1,5.2-3.7,7.5c-3.4,5-7.7,8.8-14,9.7
		C681.4,441.6,676.2,440.5,672,435.6z M673,419.5c0,1.4,0,2,0,2.5c0,3.3,1.1,6,4.4,7.3c3.2,1.2,6.9,0.5,8.9-2.7
		c4.2-6.5,6.4-13.6,4.3-21.4c-1-3.8-3.6-5.3-7.6-4.9c-2.8,0.2-4.6,1.8-5.9,4C674.2,409.3,673.7,414.9,673,419.5z"/>
	<path class="st1" d="M1071.3,386.3c0.9-7.2,4.8-10.9,10.2-13.3c7.9-3.6,16.2-3.8,24.6-1.8c6.9,1.7,10.2,6.5,9.7,13.6
		c-0.2,3.6-0.8,7.2-1.2,10.8c-1,8-2,16-3,24.2c-5.7,0.3-11.3,2.5-15.8-2.3c-3.3,1.6-6.3,3.6-9.7,4.7c-2.8,1-6,1.4-9,1.3
		c-9.5-0.4-14.4-7.7-11.8-16.9c2-6.7,6.4-11.2,12.9-13.2c4.5-1.4,9.3-1.9,13.9-2.7c2.2-0.4,4.4-0.4,6.8-0.6c1.4-2.9,1.5-5.6-1-7.7
		c-2.6-2.2-7.7-2.2-9.9,0.6C1083.3,388.9,1077.8,387.5,1071.3,386.3z M1097.9,398.8c-5.3,0-9.6,0.9-13.6,3.2
		c-2.4,1.4-3.5,4.3-2.8,6.4c0.7,2.2,3.3,4.1,5.8,4c3.2-0.1,6-1.4,8.2-3.7C1098,406.1,1099,403.1,1097.9,398.8z"/>
	<path class="st1" d="M829.5,382.4c5.1,0,9,0,13.3,0c0.7,1.2,1.4,2.6,2.3,4.3c0.9-0.6,2-1.1,2.7-1.8c4-3.8,8.9-4.4,14-4.3
		c8.3,0.2,12.5,4.8,12.2,13.6c-0.1,3.1-0.8,6.1-1.2,9.1c-1.3,8.8-2.6,17.6-4,26.6c-5,1.7-9.8,1.7-15.3,1.5c-0.1-1.9-0.5-3.6-0.3-5.1
		c0.8-5.8,1.8-11.6,2.5-17.4c0.5-3.9,0.7-7.8,0.6-11.7c-0.1-3-2.1-4.4-5.1-4c-4.4,0.5-7.4,2.9-8.4,7.1c-1.4,6.2-2.5,12.6-3.5,18.9
		c-0.8,4.4-1.3,8.8-2,13.1c-5,2.3-9.6,1.5-14.3,1.3c-1.5-3.1-0.5-5.9-0.1-8.5C825.2,411,825.9,396.7,829.5,382.4z"/>
	<path class="st1" d="M816.8,413.2c-11.4,0.8-22.3,0-33.5,2.5c0.5,2.4,0.6,4.4,1.4,6c1.6,3.4,4.7,4.8,8.4,3.8c1.6-0.4,3.3-1,4.5-2
		c5.1-4.2,10.7-3.9,17.2-2.3c-0.5,1.5-0.7,2.9-1.4,3.9c-3.3,5.1-7.9,8.5-13.7,10.4c-5.5,1.8-11,1.9-16.6,1.4
		c-8.2-0.8-15.1-7.6-15.6-16.2c-0.8-15.3,4.4-28.8,20.3-35c6-2.4,12-2.6,18.1-0.6c6.7,2.2,10.7,6.8,11.6,14
		C817.9,403.6,817.7,408,816.8,413.2z M802.1,404.7c-0.1-5.9-0.5-8.1-1.9-8.5c-2.6-0.6-5.6-1.2-8-0.5c-4,1.2-5.8,4.6-6.1,9.1
		C791.4,406.3,796.5,405.4,802.1,404.7z"/>
	<path class="st1" d="M756.9,436.9c-4.9,0-8.8,0-12.6,0c-0.9-1.6-1.7-3-2.4-4.3c-0.8,0.2-1.5,0.1-1.8,0.4c-5,5.5-11.5,6.4-18.4,5.8
		c-5.4-0.5-8-2.9-8.9-8.3c-0.2-1.1-0.4-2.2-0.2-3.3c1.6-12.4,3.3-24.8,5-37c5.8-2.1,7.3-2.2,15.3-1.3c1,2.3,0.3,4.8-0.1,7.2
		c-0.8,5.8-1.9,11.6-2.6,17.4c-0.4,2.8-0.5,5.6-0.3,8.4c0.2,3.9,3.2,6,7,4.9c3.5-1,6-3.2,6.6-6.8c1.3-7.7,2.5-15.4,3.8-23.1
		c0.5-3,0.9-6,1.3-9.2c4.9-1.5,9.5-1.3,14.6-1.2c0.1,2.6,0.6,4.8,0.3,6.9C761.4,407.6,759.6,422,756.9,436.9z"/>
	<path class="st1" d="M622.3,442.9c-9.6,1.7-10.4,1.6-13.9-2.1c-0.5,0.1-1.3,0-1.6,0.3c-5.1,5-11.5,5.5-18,4.8
		c-9.4-0.9-13.9-9-10-17.7c2.3-5.2,6.6-8.3,11.8-10c4.2-1.3,8.7-2.1,13-3c1.6-0.3,3.3-0.4,5-0.7c1.8-0.3,3.1-1.2,3.5-3.1
		c0.5-2.2-0.3-3.9-2-5.1c-2.5-1.8-5.3-1.6-7.9-0.3c-1.2,0.6-2.5,1.4-3.3,2.5c-2.7,3.4-6.1,3.6-9.8,2.6c-1-0.3-2.1-0.7-3-1
		c-1.1-2.6-0.4-4.7,1-6.4c1.8-2.1,3.8-4.2,6.2-5.5c8.3-4.5,17.1-5.1,25.9-1.6c5.6,2.2,8.6,7.5,8,13.4c-1,9.4-2.3,18.8-3.6,28.2
		C623.3,439.9,622.7,441.5,622.3,442.9z M609.3,424.5c-3.1-0.9-5.9-1-8.5-0.1c-2,0.7-3.9,2.1-5.4,3.6c-1.7,1.7-1.4,4.1,0,6.2
		c1.2,1.8,3.1,2.7,5.1,2.1c2.3-0.8,4.7-1.9,6.6-3.4C609.4,431.1,610,428.3,609.3,424.5z"/>
	<path class="st1" d="M903.2,415.3c3.8-2.1,7.5-2.4,11.1-2.6c1.8-0.1,2.9,0.8,4.1,2.2c3.2,3.7,7.7,4,11.9,1.4c2.3-1.5,2.3-5-0.1-6.2
		c-1.5-0.7-3.1-1-4.7-1.5c-4-1.1-8.2-1.9-12-3.4c-5.5-2.2-7.4-7.2-5.9-13.1c1.2-4.6,4-8,8-10.3c7.1-3.9,14.5-5.4,22.6-3.5
		c5.6,1.3,9.5,4.4,11.6,9.6c-4.7,3.7-4.7,3.7-13.2,3.8c-1.7-1.6-3.6-3.2-5.7-5.1c-2.2,0.9-4.3,1.5-6.1,2.6c-1,0.6-2.1,2.2-2,3.3
		c0.1,1,1.5,2.4,2.6,2.8c2.1,0.8,4.3,1,6.5,1.4c2.2,0.4,4.4,0.6,6.5,1.3c10.7,3.5,13.5,14,5.9,22.5c-1.5,1.6-3.2,3.2-5.2,4.2
		c-8.8,4.3-18,5.6-27.6,2.4C906.2,425.2,903.5,421.5,903.2,415.3z"/>
	<path class="st1" d="M497.8,435c2.9-0.2,5.6-0.5,8.4-0.6c2.6-0.1,4.6,0.4,6.7,2.5c3.8,3.9,9.4,3.2,12.4-0.8c1.5-2,0.9-4.7-1.5-5.5
		c-4.3-1.3-8.6-2.4-12.9-3.6c-1.6-0.5-3.2-1-4.7-1.8c-4.7-2.8-6.4-7.8-4.5-13c1.6-4.5,4.6-7.7,8.6-9.9c7.2-4,15-4.4,22.8-2.4
		c5.2,1.3,8.9,4.5,8.8,10.5c-2,2-4.4,2.7-6.9,3c-2.8,0.4-5.2,0.1-7.5-2.4c-3.4-3.6-7.2-3.2-11,0.3c-1.4,1.2-1.3,3.5,0.3,4.2
		c2.3,0.9,4.7,1.5,7.1,2.1c4,1.1,8.2,1.9,12.1,3.3c4.1,1.5,6,4.9,5.9,9.2c-0.1,6.7-2.9,11.9-8.7,15.2c-6.5,3.7-13.5,5.3-20.9,4.9
		c-5.3-0.2-9.7-2.4-13.1-6.5C497.2,441.5,496.2,439,497.8,435z"/>
	<path class="st1" d="M565.2,433.2c2.6,1.3,4.3,2.2,6,3c1.2,1.7,0.9,4.1-1.5,10.4c-4.6,1.1-9.3,1.1-14,0.6c-3.5-0.4-5.8-2.1-6.3-5.6
		c-0.4-3-0.2-6.1,0.2-9.1c1-7.7,2.2-15.3,3.4-23.3c-1.8-1-3.5-1.9-5.7-3c0.4-2.5,0.7-5.1,1.1-7.9c2.3-0.9,4.4-1.7,6.3-2.4
		c0.9-4.1,1.8-7.8,2.7-11.7c4.7-2.1,9.2-2.2,13.7-1.2c2.2,4.5-1.5,8.4-0.1,12.9c2.3,0.3,4.7,0.7,7,1c0.6,5.2,0.6,5.2-1.7,9.9
		c-2,0.2-4.1,0.3-6.1,0.5c-0.5,0.6-1.1,1-1.1,1.4C567.9,416.7,566.6,424.6,565.2,433.2z"/>
	<path class="st1" d="M968,426.7c-3.4,0.1-6.5,0.2-9.5,0.2c-1.6,0-3.2-0.3-5.4-0.5c1-16.2,5.2-31.5,6.3-47.1
		c5.4-2,10.2-2.4,15.2-1.4c0.2,1.1,0.6,1.9,0.5,2.7c-1.8,14-3.6,28.1-5.5,42.1C969.5,423.8,968.8,424.8,968,426.7z"/>
	<path class="st1" d="M884.9,381.1c3.3-0.1,6-0.3,8.8-0.4c1.6,0,3.3,0.2,4.6,0.4c2.1,2.2,1.3,4.6,1.1,6.6
		c-1.6,12.4-3.3,24.8-4.9,37.2c-0.5,3.5-1.8,5-5.3,5.1c-3.3,0.2-6.6,0.7-10.4-0.5c-0.2-1.9-0.7-3.8-0.4-5.6
		c1.7-13,3.5-25.9,5.4-38.9C883.8,384,884.3,383,884.9,381.1z"/>
	<path class="st1" d="M1132.2,349.8c5.8-1.7,11.3-1.4,17.3-1.5c-0.1,1.7,0.2,3.1-0.3,4.2c-4.8,13.3-5.6,27.9-12.6,40.5
		c-3.2,0-6,0-9,0c-0.3-1.3-0.9-2.4-0.8-3.4C1128.6,376.4,1130.4,363.2,1132.2,349.8z"/>
	<path class="st1" d="M1165,391.3c-3.7,0.6-6.7,1.2-9.6,0.3c-1-8.3,2.5-33.4,5.8-41.8c6.7-2.2,8.7-2.4,17.6-1.4
		c-1.2,7.4-4.3,14.1-6.5,21.2C1170.1,376.7,1167.5,383.7,1165,391.3z"/>
	<path class="st1" d="M1139.1,401.3c-0.4,6.2-1.3,12.2-3.4,18.2c-4.7,1.2-9.3,1.2-14.2,0.2c-0.8-6,0.7-11.3,1.9-16.7
		c0.2-0.9,1.4-1.9,2.3-2.1C1130,400.1,1134.4,399.4,1139.1,401.3z"/>
	<path class="st1" d="M1164.5,400.3c1.3,6.6-1.3,12-1.9,17.9c-5,1.3-9.5,1.5-14.5-0.1c0-5.8,0.5-11.2,2.2-16.4
		C1154.9,399.7,1159.3,400.1,1164.5,400.3z"/>
	<path class="st1" d="M975.2,370.2c-4.4,0.8-8.4,1.6-12.7-0.2c-1.4-4.1,0.1-7.9,2.8-10.5c3.8-3.7,8.9-3.7,13.9-3.2
		C979.5,361.9,979.5,361.9,975.2,370.2z"/>
	<path class="st1" d="M886.9,374c1.1-3.3,2.1-6.5,3.2-9.5c1-2.5,2.9-4.1,5.5-4.5c3.5-0.6,7-1.3,10.4-0.5c0.4,0.9,0.9,1.5,0.8,1.8
		c-1.4,5-5.4,8.3-8.4,12.1c-0.6,0.7-1.9,1.2-2.9,1.3C892.8,375,890.1,375.2,886.9,374z"/>
	<path class="st1" d="M617.2,388.1c-4.6,0-8.1,0-11.7,0c1.9-12,9-16.8,20-13.9c0.1,0.5,0.3,1.2,0.1,1.6
		C622.9,379.8,620.1,383.9,617.2,388.1z"/>
	<path class="st1" d="M633.4,157.8c-50.4,0-91.2,40.9-91.2,91.3c0,50.4,40.9,91.2,91.3,91.2c50.4,0,91.2-40.9,91.2-91.3
		S683.8,157.8,633.4,157.8z M610.7,294.7l-0.1-91.2l76.1,45.6L610.7,294.7z"/>
	<path class="st1" d="M1338.6,34.5l-33.9,5.8l45.1,266.1c-59.3-1.6-113.3,52.7-105.2,100.5c6.8,40.2,42.3,55.6,76.9,49.7
		c41.1-7,81.2-43.9,71.2-103.6l-36.7-216.6c57.5,29.1,104.8,38.9,106,104.3c19.3-33.4,24.8-53.4,21.3-74.3
		C1470.4,90.8,1347.4,86,1338.6,34.5z"/>
</g>
</svg>
